<?xml version="1.0" standalone="no"?>
<!DOCTYPE svg PUBLIC "-//W3C//DTD SVG 20010904//EN"
 "http://www.w3.org/TR/2001/REC-SVG-20010904/DTD/svg10.dtd">
<svg version="1.0" xmlns="http://www.w3.org/2000/svg"
 width="1500.000000pt" height="1500.000000pt" viewBox="0 0 1500.000000 1500.000000"
 preserveAspectRatio="xMidYMid meet">
<metadata>
Created by potrace 1.14, written by Peter Selinger 2001-2017
</metadata>
<g transform="translate(0.000000,1500.000000) scale(0.100000,-0.100000)"
fill="#000000" stroke="none">
<path d="M7178 14994 c-4 -3 -48 -7 -100 -8 -51 -2 -101 -6 -110 -11 -10 -4
-18 -3 -18 2 0 5 -9 9 -20 9 -11 0 -20 -4 -20 -8 0 -5 -8 -4 -18 1 -12 6 -23
5 -37 -5 -15 -11 -20 -11 -27 -1 -6 9 -8 8 -8 -3 0 -13 -1 -13 -10 0 -9 13
-10 13 -10 0 0 -13 -1 -13 -10 0 -7 11 -10 11 -10 2 0 -10 -5 -10 -20 -2 -15
8 -20 8 -20 -1 0 -7 -3 -9 -7 -6 -3 4 -12 2 -20 -4 -9 -9 -13 -8 -13 0 0 9 -5
9 -20 1 -15 -8 -20 -8 -20 2 0 10 -2 10 -9 -1 -5 -7 -13 -11 -19 -7 -6 3 -13
0 -15 -6 -4 -9 -6 -9 -6 -1 -1 8 -14 8 -51 -2 -27 -7 -50 -10 -50 -5 0 4 -9 6
-20 3 -11 -3 -20 -9 -20 -14 0 -5 -5 -9 -11 -9 -5 0 -8 4 -4 9 6 10 -45 -1
-66 -15 -8 -5 -9 -3 -3 7 6 10 0 9 -18 -3 -15 -10 -29 -14 -32 -9 -7 11 -59 1
-68 -13 -6 -8 -11 -6 -18 4 -7 10 -12 11 -17 4 -11 -14 -46 -27 -37 -13 3 6
-8 3 -25 -5 -18 -10 -31 -12 -31 -6 0 6 -12 2 -27 -7 -17 -11 -24 -13 -19 -5
6 10 -1 9 -24 -3 -18 -9 -29 -12 -25 -5 6 9 2 9 -15 0 -12 -6 -28 -9 -35 -6
-7 2 -19 -2 -26 -10 -10 -12 -14 -12 -20 -2 -7 10 -9 10 -9 -1 0 -8 -3 -11 -7
-8 -3 4 -13 1 -21 -6 -13 -9 -14 -9 -8 1 4 6 2 12 -3 12 -6 0 -11 -5 -11 -11
0 -6 -7 -9 -15 -6 -8 4 -17 2 -21 -4 -3 -6 -12 -8 -19 -5 -7 2 -24 -2 -39 -9
-15 -8 -24 -9 -20 -4 3 6 -8 3 -26 -6 -23 -12 -30 -13 -24 -3 6 10 5 11 -8 1
-8 -7 -18 -10 -21 -6 -4 3 -7 0 -7 -8 0 -11 -2 -11 -10 1 -6 10 -10 11 -10 3
0 -7 -9 -13 -19 -13 -11 0 -23 -5 -27 -11 -4 -8 -9 -7 -15 2 -7 11 -9 11 -9 1
0 -7 -4 -10 -10 -7 -5 3 -10 0 -10 -7 0 -9 -3 -9 -10 2 -7 12 -10 12 -10 1 0
-7 -6 -11 -15 -8 -8 4 -17 2 -20 -3 -4 -6 -17 -10 -31 -10 -16 0 -23 -4 -18
-11 5 -8 1 -8 -13 0 -16 8 -24 6 -39 -7 -10 -9 -30 -16 -43 -14 -13 2 -21 -1
-17 -6 3 -5 -6 -8 -19 -6 -14 1 -25 -1 -25 -6 0 -5 -12 -7 -26 -5 -14 1 -28
-3 -31 -11 -2 -7 -13 -11 -24 -9 -10 2 -19 -1 -19 -6 0 -6 -4 -8 -9 -4 -5 3
-13 0 -16 -6 -4 -5 -13 -8 -21 -5 -8 3 -14 1 -14 -4 0 -6 -8 -10 -17 -10 -10
0 -31 -7 -46 -15 -15 -8 -25 -10 -22 -5 3 5 -7 3 -21 -5 -15 -8 -31 -12 -36
-9 -4 3 -8 1 -8 -4 0 -4 -22 -15 -50 -22 -27 -7 -50 -17 -50 -21 0 -4 -8 -6
-17 -5 -10 2 -24 -3 -31 -11 -8 -7 -18 -11 -23 -8 -5 4 -9 1 -9 -5 0 -6 -5 -8
-10 -5 -6 4 -17 1 -25 -5 -8 -6 -18 -9 -24 -6 -5 3 -11 1 -13 -4 -2 -6 -10
-12 -18 -14 -8 -1 -25 -7 -36 -14 -12 -6 -24 -8 -28 -5 -3 3 -6 1 -6 -6 0 -7
-4 -10 -9 -6 -5 3 -12 1 -16 -5 -4 -6 -11 -8 -16 -5 -5 4 -9 1 -9 -5 0 -6 -5
-8 -10 -5 -6 3 -13 -1 -16 -10 -6 -13 -8 -14 -15 -3 -7 10 -9 11 -9 0 0 -7 -4
-10 -10 -7 -5 3 -10 1 -10 -4 0 -6 -9 -11 -19 -11 -11 0 -27 -7 -35 -16 -9 -8
-16 -12 -16 -8 0 3 -6 1 -13 -5 -8 -6 -17 -8 -20 -4 -4 3 -7 1 -7 -6 0 -7 -4
-10 -9 -6 -5 3 -12 1 -16 -5 -4 -6 -11 -8 -16 -5 -5 4 -9 2 -9 -3 0 -6 -20
-16 -45 -23 -25 -7 -45 -17 -45 -22 0 -4 -4 -5 -10 -2 -5 3 -10 1 -10 -5 0 -6
-4 -8 -10 -5 -5 3 -10 1 -10 -5 0 -6 -4 -8 -10 -5 -5 3 -10 1 -10 -5 0 -6 -5
-8 -10 -5 -6 3 -13 -1 -16 -9 -3 -9 -10 -14 -14 -11 -5 3 -11 1 -15 -5 -4 -6
-11 -8 -16 -5 -5 4 -9 1 -9 -5 0 -6 -4 -8 -10 -5 -5 3 -10 1 -10 -5 0 -6 -5
-8 -10 -5 -6 3 -13 -1 -16 -9 -3 -9 -11 -13 -16 -10 -6 4 -13 3 -17 -2 -3 -5
-27 -20 -53 -33 -26 -13 -46 -26 -44 -30 2 -3 -8 -7 -22 -8 -15 0 -28 -6 -30
-12 -2 -6 -8 -9 -13 -5 -5 3 -9 0 -9 -6 0 -6 -4 -8 -10 -5 -5 3 -15 -3 -21
-14 -7 -10 -19 -17 -26 -14 -7 3 -13 0 -13 -7 0 -6 -4 -8 -10 -5 -5 3 -10 1
-10 -5 0 -6 -4 -8 -10 -5 -5 3 -10 1 -10 -5 0 -6 -4 -8 -10 -5 -5 3 -10 -1
-10 -9 0 -8 -6 -13 -12 -11 -7 3 -26 -7 -43 -22 -16 -16 -30 -26 -30 -25 0 8
-61 -24 -72 -38 -7 -8 -13 -11 -13 -7 0 5 -7 1 -16 -7 -8 -9 -19 -14 -23 -12
-4 3 -13 -4 -21 -14 -8 -10 -17 -17 -22 -14 -4 3 -8 0 -8 -6 0 -6 -4 -8 -10
-5 -5 3 -10 1 -10 -4 0 -6 -6 -10 -12 -8 -7 1 -12 -4 -10 -12 2 -8 -3 -11 -13
-8 -8 4 -15 2 -15 -3 0 -5 -9 -12 -20 -15 -11 -4 -18 -11 -15 -16 4 -5 0 -9
-9 -9 -8 0 -36 -16 -61 -36 -26 -19 -44 -30 -40 -22 3 7 0 5 -8 -4 -8 -10 -19
-18 -25 -18 -6 0 -17 -8 -24 -19 -7 -10 -16 -18 -20 -17 -4 0 -17 -7 -28 -16
-11 -10 -25 -18 -30 -18 -5 0 -14 -9 -20 -21 -7 -11 -14 -18 -17 -15 -3 3 -12
-2 -20 -10 -8 -8 -18 -12 -23 -9 -5 3 -11 -3 -15 -14 -3 -10 -17 -22 -31 -25
-14 -4 -22 -11 -19 -16 3 -6 0 -10 -7 -10 -8 0 -28 -13 -46 -29 -17 -17 -32
-28 -32 -25 0 5 -20 -10 -56 -43 -14 -13 -29 -23 -34 -23 -6 0 -10 -5 -10 -11
0 -5 -4 -8 -9 -4 -5 3 -12 -4 -16 -15 -3 -11 -12 -20 -19 -20 -7 0 -29 -15
-48 -34 -20 -19 -38 -33 -41 -30 -3 3 -8 -4 -12 -15 -3 -12 -10 -19 -15 -16
-4 3 -20 -8 -33 -25 -14 -16 -33 -30 -43 -30 -10 0 -14 -3 -11 -6 4 -4 -14
-22 -38 -41 -25 -19 -45 -39 -45 -45 0 -6 -3 -8 -7 -5 -3 4 -17 -8 -30 -25
-12 -18 -23 -28 -23 -23 0 4 -8 -2 -19 -13 -10 -12 -20 -20 -22 -19 -2 2 -15
-8 -29 -22 -14 -13 -18 -21 -10 -16 8 4 6 -1 -5 -12 -11 -11 -23 -19 -27 -17
-4 3 -9 -5 -13 -15 -3 -11 -15 -23 -26 -26 -10 -4 -17 -10 -14 -15 3 -5 -4
-11 -15 -15 -11 -4 -18 -10 -15 -15 5 -8 -24 -25 -38 -21 -5 1 -7 -2 -4 -6 6
-11 -30 -43 -39 -35 -4 4 -4 2 -1 -4 7 -12 -27 -54 -44 -54 -6 0 -8 -4 -4 -9
3 -5 -4 -12 -15 -16 -11 -4 -19 -9 -17 -13 5 -9 -30 -42 -36 -35 -3 2 -8 -5
-12 -16 -3 -12 -11 -19 -16 -16 -5 4 -9 2 -9 -3 0 -5 -12 -22 -27 -39 -16 -16
-50 -53 -76 -81 -27 -29 -45 -52 -41 -52 4 0 -9 -13 -29 -29 -20 -15 -34 -31
-30 -35 3 -3 1 -6 -5 -6 -7 0 -12 -6 -12 -12 -1 -7 -14 -24 -30 -38 -17 -13
-30 -30 -30 -36 0 -7 -9 -16 -20 -19 -11 -4 -18 -10 -15 -14 2 -5 -3 -17 -11
-27 -9 -10 -12 -13 -8 -5 5 9 3 12 -4 7 -7 -4 -12 -14 -12 -22 0 -7 -9 -19
-20 -26 -11 -7 -20 -21 -20 -31 0 -10 -4 -15 -10 -12 -5 3 -10 3 -10 -2 0 -7
-16 -29 -60 -80 -6 -7 -8 -13 -4 -13 3 0 -4 -9 -17 -20 -13 -10 -21 -19 -17
-20 5 0 0 -8 -10 -18 -26 -29 -45 -53 -82 -107 -19 -28 -37 -51 -42 -53 -4 -2
-8 -9 -8 -16 0 -7 -16 -28 -35 -47 -19 -19 -35 -38 -35 -44 0 -5 5 -3 10 5 5
8 10 11 10 5 -1 -13 -30 -52 -30 -39 -1 9 -24 -26 -25 -36 0 -3 -10 -16 -22
-30 -13 -13 -23 -30 -23 -37 0 -7 -3 -13 -8 -13 -4 0 -16 -17 -27 -37 -11 -21
-24 -43 -30 -50 -23 -28 -30 -40 -33 -53 -2 -8 -9 -18 -15 -22 -7 -4 -7 -8 -2
-8 6 0 2 -5 -8 -11 -9 -6 -15 -14 -12 -20 4 -5 1 -9 -4 -9 -6 0 -11 -4 -11
-10 0 -5 -8 -19 -18 -30 -9 -11 -17 -24 -18 -28 -1 -16 -28 -62 -36 -62 -4 0
-8 -5 -8 -12 0 -6 -8 -20 -18 -31 -12 -15 -13 -19 -2 -13 8 4 6 0 -4 -8 -11
-9 -16 -16 -11 -16 5 0 0 -7 -11 -16 -10 -8 -12 -12 -5 -8 9 4 6 -6 -8 -24
-12 -18 -19 -32 -15 -32 4 0 0 -6 -11 -13 -10 -8 -15 -19 -11 -25 4 -7 2 -12
-3 -12 -6 0 -11 -7 -11 -15 0 -8 -5 -15 -11 -15 -5 0 -7 -4 -4 -10 3 -5 1 -10
-4 -10 -6 0 -11 -9 -11 -20 0 -11 -4 -20 -10 -20 -5 0 -10 -9 -10 -21 0 -11
-4 -17 -10 -14 -5 3 -10 1 -10 -6 0 -7 -8 -21 -18 -32 -9 -11 -11 -17 -5 -13
9 5 11 2 7 -8 -3 -9 -10 -16 -16 -16 -5 0 -6 -4 -3 -10 3 -5 1 -10 -6 -10 -7
0 -9 -3 -6 -7 4 -3 0 -15 -10 -25 -9 -10 -13 -18 -9 -18 3 0 -1 -15 -11 -32
-10 -18 -18 -40 -18 -48 -1 -8 -6 -14 -13 -13 -6 2 -9 -4 -6 -12 4 -8 1 -15
-6 -15 -6 0 -9 -4 -5 -9 3 -5 -2 -17 -11 -25 -9 -9 -14 -23 -11 -30 3 -8 -1
-17 -9 -20 -9 -3 -12 -10 -9 -16 3 -5 2 -10 -2 -10 -5 0 -10 -10 -10 -22 -1
-13 -7 -24 -13 -26 -5 -2 -8 -8 -4 -13 3 -5 0 -9 -7 -9 -7 0 -9 -3 -6 -6 3 -4
1 -16 -5 -28 -7 -11 -11 -25 -10 -30 2 -5 -2 -12 -8 -16 -6 -4 -13 -13 -14
-21 -2 -8 -9 -27 -16 -44 -7 -16 -13 -33 -12 -37 1 -5 -2 -8 -8 -8 -5 0 -7 -6
-4 -14 3 -8 0 -17 -5 -21 -6 -3 -9 -11 -6 -16 4 -5 1 -9 -4 -9 -6 0 -11 -3
-10 -7 1 -5 -2 -19 -7 -33 -4 -14 -6 -27 -5 -29 2 -2 -2 -7 -9 -11 -6 -4 -13
-13 -14 -21 -14 -63 -20 -79 -28 -79 -5 0 -8 -8 -6 -17 2 -10 -3 -23 -12 -30
-13 -11 -13 -12 0 -13 12 0 12 -2 2 -9 -7 -4 -15 -17 -17 -27 -2 -10 -4 -20
-5 -21 -2 -2 -4 -7 -5 -13 -1 -5 -4 -12 -5 -15 -1 -3 -3 -9 -4 -14 0 -5 -4
-12 -8 -16 -4 -4 -4 -14 -1 -23 4 -10 2 -13 -5 -8 -8 5 -10 2 -6 -8 3 -9 1
-16 -4 -16 -6 0 -9 -9 -7 -20 2 -11 -1 -20 -6 -20 -6 0 -8 -4 -4 -9 3 -5 1
-12 -5 -16 -6 -4 -8 -11 -5 -16 4 -5 2 -9 -4 -9 -6 0 -8 -7 -5 -15 4 -8 2 -15
-3 -15 -5 0 -9 -8 -10 -17 -3 -45 -8 -63 -17 -63 -5 0 -7 -3 -3 -6 3 -4 0 -22
-8 -41 -10 -24 -11 -32 -2 -26 9 5 9 3 0 -9 -7 -8 -10 -18 -6 -21 3 -4 1 -7
-5 -7 -6 0 -9 -7 -5 -17 5 -12 3 -14 -7 -8 -9 5 -11 4 -6 -3 4 -7 4 -18 0 -24
-5 -7 -9 -19 -10 -28 -2 -8 -4 -22 -7 -30 -2 -8 -9 -42 -17 -75 -7 -33 -18
-66 -23 -72 -6 -9 -6 -13 2 -13 7 0 5 -10 -6 -27 -14 -21 -15 -25 -3 -18 12 7
13 6 3 -6 -7 -9 -15 -33 -19 -55 -3 -21 -11 -47 -16 -58 -8 -14 -7 -17 3 -11
8 6 10 4 3 -6 -11 -19 -16 -38 -16 -71 0 -16 -5 -28 -10 -28 -5 0 -7 -4 -3 -9
3 -5 1 -12 -4 -15 -5 -3 -7 -15 -4 -27 4 -12 0 -25 -8 -30 -12 -7 -12 -9 0 -9
11 0 10 -4 -2 -23 -10 -16 -12 -29 -6 -39 6 -11 5 -19 -1 -23 -6 -4 -8 -11 -5
-16 4 -5 3 -9 -2 -9 -4 0 -9 -21 -10 -46 -2 -26 -8 -53 -14 -60 -7 -9 -8 -14
-1 -14 13 0 10 -32 -5 -48 -8 -8 -9 -22 -3 -42 6 -21 5 -28 -2 -24 -7 5 -9 -2
-6 -20 3 -14 2 -26 -1 -26 -3 0 -7 -26 -9 -57 -1 -31 -8 -64 -15 -72 -10 -12
-9 -13 3 -6 13 8 13 7 1 -8 -10 -13 -10 -17 -1 -17 9 0 9 -4 -1 -17 -10 -11
-10 -14 -1 -9 16 9 16 -2 -1 -18 -8 -8 -12 -38 -11 -84 1 -40 -2 -72 -6 -72
-5 0 -5 -13 0 -30 5 -18 5 -30 0 -30 -6 0 -5 -11 0 -26 6 -14 6 -23 2 -20 -12
7 -15 -101 -15 -509 0 -376 3 -492 16 -512 5 -8 4 -13 -2 -13 -6 0 -11 -5 -11
-11 0 -5 6 -7 12 -3 9 5 9 2 -1 -9 -7 -10 -9 -17 -3 -17 12 0 11 -18 -2 -39
-5 -8 -4 -16 3 -21 8 -4 11 -29 10 -65 -2 -38 2 -60 9 -63 9 -3 9 -9 2 -23 -7
-13 -7 -19 -1 -19 7 0 7 -9 1 -26 -6 -15 -6 -23 -1 -19 6 3 10 -3 10 -12 2
-76 6 -113 13 -113 4 0 8 -5 8 -11 0 -5 -5 -7 -11 -3 -8 4 -8 0 0 -15 7 -12 9
-27 5 -33 -4 -7 -3 -8 4 -4 7 4 12 2 12 -3 0 -6 -5 -11 -11 -11 -7 0 -5 -9 4
-24 12 -17 13 -26 4 -35 -8 -8 -8 -11 2 -11 7 0 9 -5 6 -10 -4 -6 -1 -17 5
-25 10 -12 10 -15 -1 -15 -11 0 -11 -2 1 -10 11 -7 11 -10 2 -10 -10 0 -10 -5
2 -22 11 -16 13 -25 4 -35 -6 -8 -6 -13 -1 -13 6 0 9 -12 9 -27 -1 -16 3 -34
8 -40 4 -7 5 -13 0 -13 -5 0 -2 -5 6 -10 13 -9 13 -10 0 -10 -11 0 -12 -2 -3
-8 7 -4 13 -24 15 -45 1 -20 6 -37 11 -37 5 0 6 -8 3 -17 -4 -9 -1 -20 6 -25
10 -6 10 -8 -1 -8 -11 0 -11 -3 -1 -15 7 -8 9 -15 4 -15 -5 0 -2 -5 6 -10 12
-8 12 -10 1 -10 -10 0 -11 -3 -3 -13 6 -7 12 -30 14 -50 1 -20 6 -37 12 -37 5
0 6 -3 3 -7 -4 -3 -1 -13 6 -21 10 -13 9 -14 -3 -7 -12 6 -12 5 -3 -5 6 -7 9
-19 6 -26 -3 -8 0 -14 7 -14 7 0 10 -7 7 -15 -4 -8 -2 -17 2 -20 5 -3 7 -14 4
-25 -3 -11 -1 -20 5 -20 6 0 9 -8 7 -18 -1 -9 4 -28 12 -41 12 -18 12 -22 2
-15 -12 6 -12 5 0 -9 7 -9 10 -17 6 -17 -4 0 -1 -8 6 -17 12 -15 12 -16 -1 -8
-12 7 -13 6 -3 -7 7 -8 10 -18 6 -21 -3 -4 -1 -7 6 -7 7 0 9 -4 6 -10 -3 -5 0
-10 7 -10 9 0 9 -3 -2 -10 -11 -7 -11 -10 -2 -10 7 0 10 -4 7 -10 -3 -6 0 -10
7 -10 9 0 9 -3 -2 -10 -11 -7 -11 -10 -2 -10 7 0 11 -4 7 -9 -3 -5 1 -16 9
-24 11 -11 12 -17 3 -26 -8 -8 -8 -11 2 -11 8 0 11 -6 7 -15 -3 -8 -1 -15 5
-15 6 0 7 -4 4 -10 -3 -6 -1 -10 6 -10 7 0 9 -3 6 -7 -4 -3 -2 -12 4 -20 8 -8
8 -13 1 -13 -9 0 -3 -19 27 -80 4 -8 7 -24 6 -35 0 -11 4 -23 9 -27 9 -6 14
-22 18 -60 1 -10 6 -18 11 -18 4 0 5 -4 2 -10 -3 -5 -2 -10 4 -10 6 0 8 -7 5
-15 -4 -8 -2 -15 3 -15 8 0 12 -15 15 -57 1 -7 5 -13 10 -13 4 0 8 -9 8 -21 0
-11 3 -18 8 -16 4 3 8 -8 9 -24 1 -16 9 -37 18 -45 18 -18 20 -28 3 -18 -6 4
-4 -3 5 -17 9 -13 17 -31 17 -40 0 -10 5 -19 10 -21 6 -2 12 -13 13 -26 0 -12
5 -22 9 -22 4 0 8 -11 8 -24 0 -13 4 -26 10 -28 5 -1 11 -13 13 -26 2 -13 11
-31 19 -42 9 -10 14 -21 11 -24 -3 -3 -1 -12 5 -19 7 -8 9 -17 5 -20 -3 -4 2
-10 11 -13 14 -5 15 -9 4 -15 -10 -7 -11 -9 0 -9 7 0 10 -4 7 -10 -3 -5 -1
-10 5 -10 6 0 9 -4 6 -9 -4 -5 -1 -11 4 -13 6 -2 12 -13 13 -26 0 -12 5 -22
10 -22 4 0 5 -4 2 -10 -3 -5 -1 -10 5 -10 6 0 8 -4 5 -10 -3 -5 -1 -10 5 -10
6 0 8 -4 5 -10 -3 -5 -2 -10 3 -10 9 0 25 -37 23 -52 -1 -5 4 -8 10 -8 6 0 9
-7 5 -15 -3 -8 -1 -15 4 -15 4 0 11 -13 15 -30 4 -16 13 -34 22 -38 8 -5 14
-12 13 -16 -3 -12 22 -66 31 -66 5 0 6 -7 3 -15 -4 -8 -1 -15 5 -15 6 0 11 -7
11 -15 0 -8 5 -15 11 -15 5 0 7 -4 4 -10 -3 -5 -1 -10 4 -10 6 0 11 -7 11 -15
0 -8 4 -15 10 -15 5 0 7 -7 4 -15 -4 -8 1 -17 9 -21 9 -3 13 -12 10 -20 -3 -7
2 -17 11 -20 9 -3 16 -15 16 -25 0 -10 5 -19 10 -19 6 0 10 -7 10 -15 0 -8 8
-24 17 -35 10 -11 18 -25 18 -30 0 -5 6 -17 12 -27 46 -67 61 -92 55 -97 -3
-3 -1 -6 5 -6 5 0 21 -21 34 -48 13 -26 26 -49 29 -52 12 -11 49 -70 83 -135
8 -14 17 -22 20 -18 4 3 7 1 7 -6 0 -13 57 -102 73 -112 5 -3 9 -10 10 -15 1
-5 6 -8 10 -6 5 1 6 -2 3 -7 -4 -5 10 -30 29 -55 19 -26 35 -51 35 -56 0 -6 5
-10 11 -10 5 0 7 -4 4 -10 -3 -5 1 -10 9 -10 9 0 16 -7 16 -15 0 -9 6 -18 14
-21 8 -3 12 -12 10 -19 -3 -7 8 -23 25 -36 17 -12 28 -26 25 -31 -3 -4 0 -8 7
-8 7 0 9 -3 6 -7 -4 -3 2 -12 13 -20 11 -8 20 -21 20 -29 0 -8 7 -14 15 -14 8
0 15 -6 15 -14 0 -8 7 -16 15 -20 8 -3 15 -11 15 -18 0 -7 13 -27 30 -44 16
-18 26 -35 22 -39 -4 -4 -1 -5 6 -3 7 2 20 -10 30 -26 9 -16 33 -46 52 -66 19
-20 55 -61 80 -91 24 -30 48 -56 52 -57 5 -2 6 -8 2 -13 -3 -5 -1 -9 5 -9 11
0 61 -47 61 -57 0 -3 14 -19 30 -35 17 -15 30 -33 30 -38 0 -6 6 -10 13 -10 6
0 21 -13 32 -29 10 -16 23 -27 27 -25 4 3 8 -2 8 -10 0 -9 6 -16 13 -16 6 0
23 -16 37 -34 14 -19 28 -32 33 -29 4 2 7 1 6 -4 -4 -15 13 -43 25 -43 14 0
86 -68 86 -81 0 -5 9 -9 20 -9 11 0 19 -3 19 -7 -3 -19 2 -34 9 -29 5 3 15 -6
22 -19 7 -14 22 -25 32 -25 10 0 17 -3 17 -7 -3 -20 2 -34 10 -29 5 3 11 -1
15 -9 3 -8 12 -15 21 -15 8 0 15 -8 15 -17 0 -9 2 -14 5 -11 3 3 23 -12 44
-33 21 -22 40 -39 43 -39 3 0 25 -18 48 -40 23 -22 46 -40 51 -40 5 0 9 -7 9
-16 0 -9 5 -14 12 -12 7 3 23 -8 36 -24 13 -15 30 -28 37 -28 8 0 16 -9 20
-20 3 -11 10 -19 14 -17 5 1 22 -10 39 -25 17 -14 33 -24 36 -21 3 4 6 -2 6
-11 0 -12 5 -16 14 -13 9 4 17 -2 21 -14 4 -10 11 -17 16 -14 5 4 12 -1 15 -9
3 -9 10 -16 15 -16 5 0 19 -9 31 -20 13 -10 27 -19 31 -19 4 0 17 -10 27 -23
11 -13 19 -19 20 -15 0 4 11 -3 24 -17 13 -15 28 -26 35 -26 6 0 11 -5 11 -11
0 -5 4 -8 9 -5 5 3 11 -1 14 -9 4 -8 24 -23 47 -35 22 -11 40 -25 40 -30 0 -6
9 -10 19 -10 11 0 23 -5 27 -12 5 -7 3 -8 -6 -3 -8 5 -11 4 -6 -3 4 -6 14 -8
23 -5 11 4 14 3 9 -5 -4 -7 -1 -12 8 -12 14 0 38 -15 71 -47 7 -7 15 -9 19 -6
3 4 6 1 6 -6 0 -7 4 -10 9 -7 5 3 12 -1 15 -10 3 -8 10 -12 16 -9 5 3 10 2 10
-3 0 -6 12 -13 26 -16 15 -4 24 -10 20 -13 -6 -6 18 -23 61 -42 11 -5 24 -15
28 -21 3 -5 11 -8 16 -5 5 4 9 1 9 -4 0 -6 7 -11 15 -11 8 0 15 -3 15 -8 0 -9
61 -38 73 -34 5 1 6 -2 2 -8 -3 -5 1 -10 9 -10 9 0 16 -5 16 -11 0 -5 4 -7 10
-4 5 3 10 1 10 -5 0 -6 4 -9 9 -6 5 3 20 -5 33 -17 14 -13 33 -22 42 -21 9 1
14 -2 10 -7 -3 -5 2 -9 10 -9 9 0 16 -5 16 -11 0 -5 4 -8 9 -5 5 3 11 -1 15
-9 3 -8 12 -12 21 -9 8 3 15 1 15 -5 0 -6 3 -10 8 -9 10 2 46 -14 52 -23 3 -4
38 -23 78 -42 39 -18 70 -37 67 -40 -3 -4 -2 -5 2 -2 3 3 17 -2 31 -11 17 -11
22 -12 17 -3 -4 8 2 4 14 -8 24 -25 36 -30 26 -10 -4 6 0 4 8 -5 8 -10 17 -15
20 -11 4 3 7 0 7 -7 0 -7 3 -10 7 -7 3 4 12 2 20 -4 7 -6 13 -8 13 -3 0 4 11
-3 25 -16 14 -13 25 -20 25 -16 0 3 14 -1 31 -9 17 -9 33 -14 36 -12 2 3 13
-2 24 -11 11 -9 23 -17 27 -17 4 0 13 -4 20 -8 6 -5 12 -5 12 -1 0 4 9 -1 20
-11 11 -10 20 -15 20 -11 0 3 18 -3 40 -14 23 -11 45 -18 50 -15 6 3 10 2 10
-4 0 -9 55 -32 74 -30 5 0 12 -3 15 -8 9 -12 59 -33 81 -33 10 0 20 -5 22 -10
2 -6 13 -12 26 -13 12 0 22 -5 22 -10 0 -5 7 -7 15 -3 8 3 15 1 15 -4 0 -6 3
-9 8 -9 16 3 72 -14 72 -22 0 -4 9 -6 20 -4 11 2 20 -1 20 -6 0 -6 5 -7 10 -4
6 3 10 1 10 -5 0 -6 4 -8 10 -5 5 3 10 2 10 -3 0 -6 9 -8 20 -5 11 3 20 0 20
-6 0 -6 14 -11 30 -11 17 0 30 -4 30 -9 0 -6 9 -8 20 -6 11 2 20 -1 20 -7 0
-5 7 -7 15 -4 9 3 18 0 21 -8 3 -7 16 -12 30 -10 13 1 38 -4 54 -12 16 -9 41
-17 56 -20 15 -3 32 -6 38 -7 6 -1 17 -8 25 -15 10 -10 16 -11 21 -2 6 9 9 9
14 1 4 -6 12 -9 17 -6 5 4 9 2 9 -3 0 -9 7 -10 55 -13 14 -1 25 -5 25 -10 0
-5 14 -9 30 -9 17 0 30 -3 30 -7 0 -5 15 -9 33 -11 43 -4 59 -7 77 -14 18 -8
68 -19 93 -21 9 -1 17 -6 17 -12 0 -5 5 -3 10 5 5 8 10 10 10 4 0 -6 6 -11 13
-12 31 -2 73 -14 86 -25 11 -9 13 -9 8 0 -5 8 0 11 13 10 11 -1 20 -5 20 -10
0 -5 9 -7 20 -4 11 3 23 1 26 -4 3 -5 10 -7 15 -4 5 4 9 1 9 -6 0 -8 4 -8 15
1 11 9 15 9 15 1 0 -7 4 -10 9 -6 5 3 12 2 15 -3 2 -4 17 -7 33 -6 15 1 36 -3
46 -8 11 -6 17 -5 17 3 0 8 4 8 15 -1 8 -7 21 -10 29 -7 8 3 20 -1 27 -9 9
-11 15 -12 25 -3 8 6 14 7 14 2 0 -5 10 -9 23 -8 12 1 25 -3 29 -9 5 -7 8 -6
8 4 0 13 1 13 10 0 8 -12 10 -12 10 -1 0 10 5 10 25 -3 14 -9 25 -13 25 -8 0
4 9 8 20 8 11 0 20 -4 20 -9 0 -4 4 -6 9 -2 5 3 12 1 15 -4 4 -6 18 -6 36 -1
19 5 28 5 25 -1 -4 -5 0 -10 7 -10 7 -1 20 -2 28 -3 8 -1 21 3 28 8 7 5 12 4
12 -3 0 -6 3 -10 8 -10 4 1 9 1 12 0 3 -1 22 -3 43 -5 25 -2 34 0 25 6 -8 6
-4 7 12 2 14 -4 33 -7 43 -6 9 0 17 -5 17 -11 0 -7 4 -6 10 3 7 11 10 11 10 2
0 -10 5 -10 20 -2 11 6 20 7 20 3 0 -12 147 -16 560 -16 398 0 507 3 528 16 7
5 12 3 12 -5 0 -9 3 -9 10 2 5 8 10 10 10 4 0 -12 29 -12 48 0 7 4 12 2 12 -4
0 -8 7 -9 18 -5 9 4 23 8 30 8 6 0 12 4 12 8 0 4 14 4 30 -1 17 -5 30 -5 30 0
0 4 9 6 20 3 11 -3 27 0 35 7 12 10 15 10 15 -1 0 -11 2 -11 10 1 8 12 11 13
19 1 6 -10 10 -10 16 -1 4 6 17 10 28 9 49 -3 78 1 71 12 -4 7 1 7 16 -1 15
-8 20 -8 16 -1 -4 6 -2 11 3 11 6 0 11 -6 11 -12 0 -9 3 -10 8 -2 4 6 17 10
30 9 12 -1 22 3 22 8 0 5 6 4 14 -2 10 -9 16 -8 26 4 10 12 16 13 26 4 9 -7
14 -8 14 -1 0 5 14 9 30 8 17 -1 30 2 30 8 0 5 3 6 7 3 3 -4 12 -2 20 4 10 9
13 8 13 -1 0 -9 4 -9 17 1 10 9 14 9 10 2 -5 -8 1 -8 20 2 21 11 29 12 35 2 6
-9 8 -9 8 2 0 7 6 11 15 8 8 -4 17 -1 21 5 4 7 9 6 15 -3 7 -12 9 -12 9 0 0 7
6 11 15 7 8 -3 15 0 15 6 0 6 3 8 6 5 4 -3 16 -2 27 4 12 7 17 7 13 1 -6 -10
20 -4 82 19 13 5 22 5 22 -1 0 -6 12 -2 27 7 17 11 24 13 19 5 -7 -11 -4 -12
13 -3 12 7 27 9 33 5 6 -4 8 -3 5 3 -4 6 7 11 26 12 18 2 40 3 50 4 9 1 17 5
17 10 0 4 5 5 10 2 6 -3 10 -2 10 3 0 6 10 10 23 10 42 1 92 12 95 22 2 6 8
10 13 10 6 0 8 -4 4 -10 -3 -5 7 -3 21 5 15 8 31 12 36 9 4 -3 8 0 8 7 0 7 3
9 7 6 3 -4 13 -1 21 6 13 10 14 9 8 -1 -7 -11 -4 -12 11 -3 11 6 23 7 27 4 3
-3 6 -2 6 4 0 6 20 14 45 18 25 3 43 10 40 16 -3 5 1 6 10 3 8 -4 22 -1 30 6
12 10 15 10 15 -1 0 -12 2 -12 9 0 5 7 14 10 20 7 6 -4 14 -1 17 8 3 9 12 12
21 9 10 -4 14 -2 10 4 -4 7 4 10 23 8 17 -1 30 2 30 7 0 6 7 8 15 4 8 -3 15
-1 15 5 0 6 7 9 15 5 8 -3 15 -1 15 4 0 6 11 10 24 10 13 0 26 4 28 10 2 5 14
11 28 14 14 2 27 5 30 6 3 2 8 2 13 1 4 0 7 3 7 8 0 6 9 8 20 6 11 -2 20 1 20
6 0 6 4 8 9 5 5 -3 12 2 15 11 6 15 8 15 17 3 8 -13 11 -13 19 2 6 9 17 15 25
12 8 -4 15 -1 15 6 0 6 5 8 10 5 6 -3 10 -1 10 4 0 6 5 11 11 11 5 0 7 -6 4
-12 -4 -7 -1 -6 7 2 7 8 22 17 33 18 11 2 23 8 26 14 3 5 9 9 13 9 3 -1 8 0
11 0 3 1 8 2 13 3 31 7 52 19 52 29 0 7 4 6 10 -3 7 -11 10 -11 10 -2 0 7 4
11 9 8 5 -4 11 -2 13 4 2 6 13 12 24 14 12 3 40 14 62 25 22 11 42 17 46 14 3
-4 6 -1 6 6 0 7 6 11 13 8 6 -2 18 3 25 12 11 13 12 13 7 1 -4 -8 1 -6 10 5 9
11 18 19 20 18 3 -2 7 -2 10 -2 3 1 10 3 15 4 6 1 15 3 21 4 5 0 7 6 4 12 -4
6 -1 10 6 8 28 -3 40 1 33 13 -4 7 -3 8 4 4 6 -4 26 1 44 11 18 9 36 16 41 15
4 -1 7 3 7 9 0 5 5 7 10 4 6 -3 10 -1 10 5 0 6 5 8 10 5 6 -3 10 -1 10 5 0 6
4 9 9 5 6 -3 14 3 20 12 6 10 11 15 11 10 0 -4 13 -1 30 8 16 8 33 16 37 16 5
1 32 17 61 35 29 19 59 34 67 34 8 0 15 5 15 12 0 6 3 9 6 5 4 -3 13 1 21 9 8
8 18 12 23 9 4 -3 11 2 14 11 4 9 9 14 13 11 3 -4 12 1 20 11 8 9 11 11 8 4
-6 -11 -3 -11 13 -1 12 7 19 16 17 19 -2 3 6 7 18 7 12 1 23 7 25 13 2 5 10
10 18 10 8 0 14 5 14 11 0 5 5 7 10 4 6 -3 10 -1 10 5 0 10 48 35 63 32 4 -1
7 3 7 8 0 6 7 10 16 10 9 0 12 5 8 12 -5 8 -2 9 9 5 11 -4 17 -1 17 8 0 8 6
12 13 10 6 -3 24 6 38 19 15 14 29 23 31 20 3 -2 16 6 30 18 14 13 31 24 38
26 7 1 18 9 26 17 8 7 23 17 34 20 11 4 17 11 14 17 -5 7 -1 9 9 5 9 -3 18 0
21 9 3 9 10 12 16 9 5 -3 10 1 10 10 0 9 4 14 9 11 5 -3 20 3 33 14 14 11 28
16 32 13 3 -3 6 1 6 9 0 9 11 19 25 22 14 4 23 11 20 16 -3 6 1 10 10 10 8 0
23 9 32 19 9 11 20 18 24 15 5 -2 13 5 19 16 6 11 15 18 21 15 5 -4 9 -1 9 4
0 6 4 11 10 11 9 0 42 25 76 58 7 6 17 12 23 12 6 0 11 3 11 8 0 4 18 18 39
32 22 13 38 28 35 32 -3 4 0 8 7 8 12 0 18 4 76 58 18 16 35 27 38 24 3 -3 5
1 5 8 0 7 2 11 5 8 3 -3 23 11 45 31 21 20 53 47 71 61 42 33 59 50 59 58 0 4
10 12 23 17 12 6 21 16 20 23 -2 7 4 9 14 5 11 -4 14 -3 9 5 -4 7 -1 12 9 12
9 0 13 4 10 10 -3 5 -2 10 4 10 6 0 21 11 34 24 14 14 28 22 31 19 3 -4 6 1 6
11 0 9 5 14 10 11 6 -3 10 -2 10 3 0 15 36 52 50 52 7 0 11 3 8 6 -7 6 39 54
52 54 5 0 14 8 19 17 6 10 11 14 11 10 0 -4 15 9 33 30 17 20 47 52 65 71 17
19 32 38 32 43 0 6 4 8 9 4 5 -3 12 4 16 15 4 11 11 18 16 15 5 -4 9 -2 9 3 0
5 11 21 25 36 14 15 25 24 25 20 0 -5 11 7 25 26 14 19 31 37 37 42 7 4 10 8
7 8 -3 0 16 22 43 49 28 28 47 55 43 60 -4 7 1 8 12 4 10 -3 15 -2 11 2 -5 5
1 14 12 22 11 8 20 21 20 30 0 9 3 14 6 10 4 -3 25 17 47 46 22 29 44 54 47
57 4 3 9 13 13 23 4 10 11 15 17 12 5 -3 10 -2 10 4 0 6 10 20 23 32 12 12 15
18 7 14 -8 -4 -5 3 7 16 48 52 95 109 90 109 -4 0 4 11 16 24 38 41 46 54 40
60 -4 3 2 6 12 6 10 0 16 3 12 6 -5 6 66 112 84 124 4 3 9 12 11 20 2 7 13 23
24 34 12 12 22 24 24 28 1 4 4 17 7 28 3 11 9 18 13 15 4 -3 14 3 21 12 12 14
12 16 -1 9 -9 -4 -8 -1 3 7 9 8 17 19 17 26 0 6 5 11 12 11 6 0 8 3 5 7 -4 3
0 15 10 25 9 10 13 18 10 18 -4 0 1 9 11 19 30 34 42 50 42 57 0 4 8 13 18 21
9 8 11 11 4 8 -11 -6 -11 -3 0 14 7 12 16 21 20 21 5 0 8 5 8 12 0 6 8 20 18
31 12 15 13 19 2 13 -9 -4 -8 -2 3 7 9 8 17 18 17 22 0 4 8 14 18 22 11 10 12
12 2 8 -10 -4 -9 -2 2 8 10 8 15 17 11 20 -3 4 0 7 7 7 7 0 10 3 7 7 -4 3 1
12 11 20 11 10 12 12 2 8 -10 -4 -9 -2 2 8 10 8 15 17 11 20 -3 4 -1 7 6 7 7
0 10 4 6 9 -3 6 3 14 12 20 10 6 15 11 10 11 -4 0 -1 10 8 23 8 13 12 27 8 30
-3 4 -1 7 5 7 7 0 25 26 40 58 15 31 30 59 35 60 4 2 7 10 7 18 0 8 9 22 19
31 11 9 17 22 14 29 -3 8 0 14 6 14 6 0 8 7 4 17 -4 11 -3 14 5 9 7 -4 12 -1
12 10 0 9 8 23 18 31 9 8 10 11 3 7 -9 -5 -6 4 7 23 12 17 19 33 15 37 -3 3
-1 6 5 6 6 0 9 6 6 14 -3 7 2 16 11 20 9 3 13 10 10 16 -3 5 0 10 7 10 10 0 9
3 -2 10 -12 8 -12 10 3 16 9 3 14 10 11 15 -3 5 1 12 10 15 8 3 12 12 9 20 -3
8 0 14 6 14 6 0 8 7 4 17 -4 11 -3 14 5 9 11 -6 17 12 13 36 0 5 4 8 10 8 5 0
8 4 5 9 -3 5 0 14 8 20 8 7 17 27 20 46 4 19 11 35 16 35 6 0 10 11 10 24 0
13 7 26 15 30 8 3 15 11 15 18 0 9 -3 9 -11 -2 -6 -8 -9 -10 -6 -5 21 53 33
75 40 75 4 0 6 4 2 9 -3 5 2 17 11 25 9 9 11 16 4 16 -7 0 -5 8 4 22 9 12 16
30 16 40 0 10 4 18 8 18 4 0 9 10 9 22 1 13 7 24 13 26 5 2 10 16 10 30 0 15
7 35 15 45 7 11 12 28 10 38 -2 11 0 17 6 14 8 -5 14 15 10 38 0 4 3 7 8 7 5
0 8 6 8 13 -2 22 36 137 45 137 5 0 7 4 4 8 -3 5 1 20 9 35 10 20 11 27 2 27
-8 0 -8 3 -2 8 19 13 36 52 24 52 -8 0 -8 4 0 14 7 8 14 27 17 43 3 15 11 40
19 56 7 15 9 25 4 22 -5 -3 -6 1 -3 9 3 9 11 16 18 16 6 0 4 5 -4 10 -12 7
-12 10 -1 10 7 0 11 6 8 15 -4 8 -2 17 3 20 5 3 7 14 5 25 -3 13 0 18 7 14 7
-5 9 -1 5 9 -4 10 -1 17 6 17 8 0 7 4 -3 10 -12 8 -12 10 3 16 9 3 17 10 17
16 0 5 -4 6 -10 3 -16 -10 -12 2 7 20 13 14 14 18 2 25 -11 7 -10 10 4 16 15
5 15 9 5 22 -11 13 -11 14 1 7 11 -6 13 -4 8 7 -3 9 0 21 6 28 9 10 9 11 -2 5
-8 -5 -6 3 5 21 14 21 15 26 4 19 -12 -7 -13 -6 -3 7 7 8 10 18 6 21 -3 4 -1
7 6 7 7 0 10 4 6 9 -3 5 -1 12 4 15 5 3 7 15 4 27 -4 12 0 25 8 30 12 7 12 9
0 9 -10 0 -11 3 -2 13 6 8 8 17 4 20 -3 4 -2 7 3 7 6 0 9 12 9 28 -1 15 2 32
6 37 3 6 6 17 6 25 1 22 11 68 18 80 3 5 1 10 -5 10 -7 0 -5 7 5 16 12 12 13
19 4 30 -9 11 -8 14 1 14 8 0 10 3 7 6 -3 4 -2 15 4 25 7 14 6 19 -2 19 -8 0
-9 4 0 13 6 8 8 17 4 20 -3 4 -1 7 5 7 7 0 12 5 12 11 0 5 -5 7 -11 3 -6 -3
-3 8 5 25 10 19 12 31 6 31 -6 0 -8 5 -3 13 4 6 9 32 11 57 1 24 8 50 14 57 8
10 7 13 -3 13 -10 0 -10 3 -2 11 6 6 9 18 6 25 -3 8 1 14 8 14 11 0 11 3 -1
10 -8 5 -10 10 -5 10 6 0 9 17 9 37 -1 21 4 42 10 46 8 6 7 10 -2 14 -10 4
-10 8 0 21 11 13 11 14 0 8 -12 -7 -12 -4 -2 14 7 13 12 45 12 72 0 26 5 51
10 54 6 4 5 10 -3 14 -10 7 -10 12 -1 22 9 11 9 17 0 26 -9 9 -9 12 0 12 9 0
10 5 3 19 -6 10 -7 22 -3 25 11 12 14 103 19 504 2 206 0 379 -5 385 -4 7 -7
45 -6 85 1 39 -2 72 -7 72 -6 0 -5 9 1 20 8 14 8 20 0 20 -6 0 -8 5 -3 13 10
16 13 37 5 37 -7 0 -9 23 -14 133 -1 31 -6 57 -11 57 -5 0 -4 7 3 15 7 9 8 15
2 15 -6 0 -9 8 -7 18 1 9 -1 25 -6 34 -6 11 -5 18 4 21 9 4 9 6 0 6 -7 1 -13
6 -13 12 0 5 5 7 11 3 6 -3 4 5 -5 19 -13 19 -14 26 -4 29 11 4 10 8 -1 21 -7
9 -11 24 -7 32 3 9 2 13 -4 10 -6 -3 -10 -1 -10 4 0 6 5 11 11 11 7 0 4 11 -6
27 -13 19 -15 28 -6 31 9 3 9 7 0 18 -6 7 -9 20 -6 28 3 7 0 19 -6 25 -8 8 -8
11 2 11 10 0 11 3 2 13 -6 8 -8 17 -4 20 3 4 2 7 -3 7 -5 0 -9 10 -10 23 -3
55 -9 87 -17 87 -5 0 -4 7 3 15 9 10 9 15 1 15 -6 0 -11 13 -11 29 0 17 -4 32
-9 35 -4 3 -6 18 -3 32 4 20 2 25 -8 19 -9 -6 -10 -3 -1 13 7 14 8 23 1 27 -6
4 -8 11 -5 16 4 5 0 9 -7 9 -11 0 -10 2 0 9 11 6 10 10 -4 15 -16 6 -16 8 -4
16 11 7 12 12 3 21 -6 6 -9 18 -6 25 3 8 -1 14 -8 14 -7 0 -9 3 -6 7 4 3 2 12
-4 20 -9 10 -8 13 1 13 10 0 10 4 -1 16 -7 8 -14 34 -17 57 -2 23 -7 44 -10
47 -4 3 -8 18 -10 35 -2 16 -8 35 -14 42 -6 7 -8 20 -4 28 3 8 2 15 -2 15 -4
0 -9 8 -10 18 -6 53 -15 92 -23 92 -5 0 -5 7 -2 17 4 10 2 14 -4 10 -6 -4 -9
3 -7 18 1 14 -2 25 -6 25 -5 0 -7 9 -5 20 2 11 -1 20 -6 20 -6 0 -7 5 -4 10 3
6 0 10 -7 10 -9 0 -9 3 2 10 10 6 11 10 3 10 -7 0 -13 11 -13 25 0 14 -5 25
-11 25 -5 0 -7 5 -4 11 4 5 -1 20 -12 31 -12 14 -13 18 -3 13 13 -8 13 -7 1 8
-7 9 -10 17 -6 17 4 0 2 7 -5 15 -6 8 -9 19 -5 25 3 5 1 10 -6 10 -7 0 -9 3
-6 7 4 3 -1 15 -10 26 -10 11 -12 17 -5 13 6 -4 12 -3 12 3 0 5 -4 11 -10 13
-5 2 -11 13 -13 25 -2 12 -6 25 -9 29 -4 3 -4 13 -1 22 5 11 3 13 -7 7 -8 -5
-11 -3 -8 6 3 8 -3 31 -14 52 -10 21 -16 42 -13 47 3 6 1 10 -5 10 -6 0 -9 4
-6 9 4 5 1 11 -4 13 -6 2 -12 13 -13 26 0 12 -5 22 -9 22 -4 0 -5 7 -2 15 4 9
-1 18 -11 21 -13 5 -14 9 -3 15 10 7 10 9 1 9 -7 0 -13 9 -13 20 0 11 -4 20
-10 20 -5 0 -7 7 -4 15 4 8 -1 17 -10 21 -9 3 -13 10 -10 15 3 5 -4 26 -15 45
-12 19 -17 32 -11 29 6 -3 7 1 4 9 -3 9 -10 16 -16 16 -5 0 -6 5 -3 10 3 6 1
10 -5 10 -6 0 -8 5 -5 10 3 6 2 10 -2 10 -5 0 -10 10 -10 22 -1 13 -10 28 -19
35 -9 6 -13 16 -10 22 4 5 2 12 -4 16 -5 3 -10 15 -10 26 0 10 -5 19 -11 19
-5 0 -7 5 -4 10 3 6 1 10 -5 10 -6 0 -9 4 -6 9 4 5 1 11 -4 13 -6 2 -12 13
-13 25 0 12 -5 19 -9 17 -4 -3 -8 7 -8 21 0 14 -4 24 -9 20 -6 -3 -8 3 -6 14
2 11 -3 22 -11 25 -9 3 -13 10 -9 15 3 6 -3 14 -12 20 -10 6 -15 11 -10 11 4
0 0 15 -10 33 -9 17 -16 35 -15 40 1 4 -3 7 -9 7 -5 0 -8 4 -5 9 3 5 -1 14
-10 21 -8 7 -13 19 -10 26 3 8 1 13 -3 11 -5 -1 -10 3 -12 8 -1 6 -9 16 -18
23 -9 8 -10 10 -3 7 11 -6 11 -3 0 16 -7 13 -16 26 -19 29 -3 3 -12 20 -20 38
-8 17 -17 32 -21 32 -5 0 -7 3 -6 8 3 12 -24 62 -34 62 -4 0 -7 3 -7 8 4 21
-2 32 -13 26 -7 -4 -10 -4 -6 1 4 4 2 17 -4 29 -7 11 -11 24 -10 29 1 4 -3 6
-9 5 -6 -2 -13 6 -15 17 -1 11 -8 21 -13 23 -6 2 -11 10 -11 17 0 8 -8 19 -17
24 -14 8 -15 11 -3 11 12 0 11 3 -2 11 -10 5 -18 17 -18 24 0 8 -4 15 -10 15
-5 0 -10 7 -10 16 0 9 -5 12 -12 8 -8 -5 -9 -2 -5 9 3 9 1 20 -6 24 -7 5 -18
19 -25 33 -27 53 -39 70 -45 63 -4 -3 -7 3 -7 15 0 12 -4 22 -10 22 -5 0 -10
6 -10 13 0 7 -9 19 -19 27 -11 7 -18 17 -15 22 3 4 1 8 -3 8 -5 0 -17 16 -27
35 -11 19 -23 35 -28 35 -5 0 -6 5 -3 10 3 6 -1 13 -9 16 -9 3 -13 10 -10 15
3 5 -2 9 -11 9 -9 0 -14 4 -10 9 3 5 -2 16 -10 24 -8 9 -15 21 -15 27 0 6 -4
8 -10 5 -5 -3 -10 0 -10 8 0 8 -7 20 -15 27 -8 7 -13 16 -10 20 3 5 -7 18 -22
30 -16 12 -28 25 -28 28 0 4 -4 6 -9 4 -5 -2 -6 4 -3 12 4 9 -1 17 -14 21 -10
4 -17 11 -14 16 4 5 -1 12 -9 15 -9 3 -16 11 -16 18 0 6 -9 18 -19 26 -11 7
-18 17 -15 22 3 4 0 8 -6 8 -6 0 -9 3 -7 8 6 10 -30 42 -39 34 -4 -4 -4 1 -1
11 4 11 1 17 -8 17 -7 0 -17 5 -21 12 -5 7 -2 9 7 4 8 -4 6 -1 -3 7 -10 8 -15
17 -11 20 3 4 -1 7 -10 7 -9 0 -17 4 -17 8 0 4 -15 25 -34 45 -18 20 -32 37
-30 37 4 0 -54 65 -117 132 -20 21 -34 38 -31 38 4 0 -4 7 -16 16 -12 8 -22
22 -22 30 0 8 -4 13 -8 10 -5 -3 -15 6 -22 19 -7 14 -22 25 -32 25 -10 0 -17
3 -17 8 3 19 -2 33 -11 27 -5 -3 -10 1 -10 9 0 9 -7 16 -17 16 -9 0 -13 3 -10
7 4 3 -7 19 -23 35 -17 15 -30 33 -30 39 0 5 -4 7 -10 4 -5 -3 -10 1 -10 10 0
9 -3 14 -7 12 -10 -4 -53 40 -45 47 3 3 0 6 -6 6 -14 0 -62 47 -54 54 3 3 0 6
-7 6 -7 0 -19 6 -26 13 -35 30 -43 35 -50 29 -4 -4 -6 -2 -5 3 5 21 0 36 -10
30 -5 -3 -10 1 -10 9 0 9 -5 16 -10 16 -6 0 -22 12 -35 26 -14 15 -25 24 -25
20 0 -3 -8 2 -18 12 -11 9 -18 19 -16 22 1 3 -11 15 -27 25 -16 11 -29 23 -29
28 0 4 -6 7 -13 7 -7 0 -18 9 -25 20 -7 11 -20 20 -29 20 -9 0 -13 3 -10 6 7
8 -44 50 -55 47 -5 -2 -8 4 -8 12 0 8 -5 15 -10 15 -6 0 -24 14 -40 30 -17 17
-30 27 -30 23 0 -4 -7 2 -15 13 -8 10 -15 15 -15 11 0 -4 -6 -2 -14 5 -8 7
-12 16 -10 19 2 4 -3 10 -12 13 -10 4 -13 2 -8 -6 4 -7 3 -8 -4 -4 -7 4 -12
14 -12 22 0 8 -7 14 -15 14 -8 0 -15 3 -15 8 0 4 -18 18 -40 31 -21 14 -36 29
-33 34 3 6 2 7 -4 4 -5 -3 -21 5 -36 19 -14 13 -31 24 -37 24 -5 0 -10 5 -10
10 0 6 -5 10 -11 10 -7 0 -23 12 -37 28 -14 15 -27 26 -29 25 -8 -7 -24 -2
-19 6 3 5 -1 12 -10 15 -10 4 -13 2 -8 -6 4 -7 3 -8 -4 -4 -7 4 -12 14 -12 22
0 8 -5 12 -10 9 -6 -3 -13 1 -16 9 -3 9 -10 13 -15 10 -5 -3 -9 0 -9 6 0 6 -4
9 -9 6 -5 -3 -12 1 -15 10 -4 9 -13 14 -22 10 -8 -3 -13 -2 -10 3 3 4 -7 14
-22 22 -15 8 -32 21 -39 29 -7 8 -13 11 -13 6 0 -5 -9 1 -19 13 -11 12 -22 22
-25 22 -9 -2 -89 52 -104 69 -8 8 -11 9 -7 3 3 -7 1 -13 -4 -13 -6 0 -11 7
-11 16 0 8 -4 12 -10 9 -5 -3 -10 -1 -10 4 0 6 -7 11 -15 11 -8 0 -15 5 -15
11 0 5 -5 7 -11 4 -6 -4 -17 2 -25 14 -9 12 -20 19 -25 16 -5 -4 -9 -3 -9 2 0
4 -23 19 -50 32 -28 14 -50 29 -50 35 0 5 -3 6 -7 3 -3 -4 -12 1 -20 11 -10
11 -12 12 -8 2 4 -10 2 -9 -8 2 -8 10 -17 15 -20 11 -4 -3 -7 0 -7 7 0 7 -3
10 -7 7 -3 -4 -12 1 -20 11 -10 11 -12 12 -8 2 4 -10 2 -9 -8 2 -8 10 -17 15
-20 11 -4 -3 -7 -1 -7 6 0 7 -4 9 -10 6 -5 -3 -10 -1 -10 5 0 6 -4 8 -10 5 -5
-3 -10 -2 -10 3 0 5 -6 9 -13 9 -11 0 -70 36 -87 53 -3 3 -12 6 -20 8 -32 7
-109 50 -102 57 4 5 2 6 -3 2 -6 -3 -34 7 -63 23 -29 16 -50 23 -46 17 3 -7
-3 -3 -13 8 -10 11 -26 19 -35 17 -10 -2 -18 1 -18 7 0 6 -9 11 -20 11 -11 0
-20 5 -20 11 0 5 -4 8 -9 4 -5 -3 -16 1 -24 9 -8 8 -17 12 -21 9 -3 -4 -6 -1
-6 5 0 6 -7 9 -15 6 -8 -4 -15 -1 -15 6 0 6 -4 8 -10 5 -5 -3 -10 -1 -10 4 0
6 -3 10 -7 9 -15 -3 -63 14 -63 23 0 5 -9 9 -20 9 -11 0 -20 5 -20 12 0 6 -3
8 -7 5 -3 -4 -17 0 -31 9 -13 9 -21 11 -17 5 3 -6 -10 -2 -30 9 -20 11 -41 17
-47 14 -7 -5 -8 -2 -3 6 6 10 3 12 -13 8 -12 -4 -20 -2 -16 3 3 5 2 9 -3 10
-24 2 -45 9 -73 22 -17 9 -28 11 -24 6 3 -5 -9 -1 -27 10 -18 11 -36 18 -41
15 -4 -3 -11 2 -14 11 -6 13 -8 14 -15 3 -7 -10 -9 -10 -9 0 0 6 -7 12 -16 12
-17 0 -146 42 -154 50 -4 4 -15 7 -55 13 -5 1 -16 8 -24 15 -11 11 -15 11 -22
1 -6 -11 -9 -10 -14 3 -4 10 -15 15 -26 13 -10 -2 -19 0 -19 6 0 5 -3 8 -7 8
-5 -1 -10 0 -13 1 -9 3 -44 10 -62 12 -10 1 -18 6 -18 11 0 4 -4 5 -10 2 -5
-3 -10 -1 -10 4 0 6 -5 11 -11 11 -5 0 -7 -6 -3 -12 6 -10 5 -10 -8 -1 -8 7
-18 10 -21 6 -4 -3 -7 -1 -7 6 0 7 -4 9 -10 6 -5 -3 -10 0 -10 7 0 10 -2 10
-9 -1 -6 -9 -11 -10 -15 -2 -4 6 -12 9 -17 6 -5 -4 -9 -2 -9 4 0 5 -8 10 -17
10 -16 0 -48 6 -63 11 -3 1 -8 2 -12 1 -5 0 -8 3 -8 9 0 5 -5 10 -11 10 -5 0
-7 -6 -3 -12 5 -9 2 -8 -9 1 -10 8 -20 11 -24 8 -3 -3 -17 0 -32 7 -14 7 -33
12 -41 11 -8 -1 -20 3 -27 8 -7 5 -17 6 -23 2 -5 -3 -10 -2 -10 2 0 8 -17 12
-62 14 -10 0 -18 6 -18 12 0 7 -4 6 -10 -3 -6 -9 -10 -11 -10 -3 0 7 -7 10
-15 7 -8 -4 -15 -2 -15 3 0 5 -8 9 -17 10 -38 2 -99 11 -113 17 -8 3 -24 7
-35 9 -11 1 -26 6 -32 10 -8 5 -13 3 -13 -4 0 -7 -8 -5 -20 6 -15 14 -20 15
-20 4 0 -11 -2 -11 -10 1 -9 13 -10 13 -11 0 0 -10 -3 -8 -9 5 -5 11 -9 15 -9
10 -1 -13 -41 -15 -41 -2 0 4 -4 5 -10 2 -5 -3 -10 -1 -10 4 0 6 -5 11 -11 11
-5 0 -8 -4 -4 -9 3 -6 -9 -5 -30 0 -19 6 -40 7 -45 4 -6 -3 -10 -1 -10 6 0 7
-3 9 -7 6 -3 -4 -12 -2 -20 4 -9 9 -13 8 -13 0 0 -6 -5 -11 -11 -11 -5 0 -8 4
-5 9 3 4 -6 6 -19 3 -15 -2 -25 0 -25 7 0 9 -5 9 -20 1 -15 -8 -20 -8 -20 1 0
6 -7 9 -15 6 -8 -4 -17 -2 -20 2 -3 5 -23 7 -45 4 -30 -4 -40 -2 -40 8 0 11
-2 11 -10 -1 -9 -13 -10 -13 -10 0 0 13 -1 13 -10 0 -5 -8 -10 -10 -10 -5 0
11 -10 12 -105 15 -33 1 -68 6 -77 12 -11 5 -18 5 -18 -1 0 -6 -11 -6 -30 -1
-16 5 -30 5 -30 1 0 -3 -9 -7 -20 -7 -11 0 -20 3 -20 7 0 8 -74 10 -501 15
-179 3 -328 2 -331 -2z m298 -2993 c10 8 14 8 14 0 0 -7 8 -8 25 -1 17 6 25 6
25 -1 0 -6 4 -8 9 -4 5 3 12 1 16 -5 3 -5 12 -10 18 -10 7 0 6 4 -3 10 -8 5
-10 10 -4 10 5 0 15 -5 22 -12 9 -9 12 -9 12 0 0 7 5 12 11 12 5 0 8 -3 6 -7
-3 -5 6 -9 20 -10 15 0 21 2 15 5 -5 4 14 6 43 5 30 0 59 -4 64 -8 6 -3 11 0
11 7 0 9 3 9 8 2 4 -6 19 -10 35 -10 15 1 27 -1 27 -4 0 -3 9 -6 20 -6 11 0
20 4 20 9 0 4 4 5 10 2 5 -3 19 -8 31 -10 11 -2 30 -7 42 -10 18 -5 19 -4 7 5
-12 10 -12 11 5 5 11 -4 26 -8 33 -8 6 0 12 -5 12 -10 0 -5 7 -4 15 3 8 7 15
9 15 4 0 -5 24 -10 53 -12 28 -2 54 -8 55 -13 3 -6 10 -5 19 2 9 8 17 9 21 3
8 -10 16 -12 66 -16 20 -1 36 -7 36 -13 0 -5 5 -3 10 5 6 10 10 11 10 3 0 -8
15 -13 40 -13 22 0 40 -4 40 -9 0 -5 9 -7 20 -4 13 3 20 0 20 -8 0 -11 2 -11
10 1 7 11 10 11 10 2 0 -7 5 -10 10 -7 6 3 10 0 10 -7 0 -9 3 -9 10 2 8 12 10
12 10 1 0 -8 3 -11 7 -8 3 4 12 2 20 -4 10 -9 13 -8 13 1 0 9 7 7 20 -5 11
-10 20 -13 20 -7 0 11 60 -6 71 -22 4 -4 10 -3 14 4 5 8 12 7 25 -5 10 -9 24
-14 29 -10 6 3 11 2 11 -4 0 -6 6 -8 14 -5 8 3 17 1 20 -5 4 -6 13 -8 21 -4 8
3 15 0 15 -6 0 -6 13 -11 28 -11 16 0 32 -3 36 -7 3 -4 16 -8 28 -10 12 -2 25
-7 28 -11 5 -7 27 -14 48 -15 6 0 12 -4 12 -8 0 -4 7 -10 16 -13 10 -4 13 -2
7 7 -4 6 6 4 21 -7 18 -11 26 -13 21 -5 -3 8 -1 7 7 -2 7 -9 19 -14 26 -12 6
3 12 0 12 -6 0 -6 9 -11 20 -11 11 0 20 -4 20 -10 0 -5 6 -7 14 -4 8 3 17 0
21 -5 3 -6 11 -9 16 -6 5 4 9 1 9 -6 0 -7 3 -9 7 -6 3 4 17 0 31 -9 18 -12 23
-12 17 -3 -3 8 1 5 9 -5 9 -11 16 -17 16 -13 0 4 10 2 23 -5 12 -7 26 -11 30
-10 4 1 10 -4 13 -12 3 -8 12 -12 20 -9 8 3 14 0 14 -7 0 -6 4 -9 9 -5 5 3 26
-6 46 -20 21 -13 41 -22 46 -19 5 3 9 0 9 -6 0 -6 4 -9 9 -5 5 3 16 -1 24 -9
8 -8 17 -12 21 -9 3 4 6 1 6 -5 0 -7 9 -12 20 -12 11 0 20 -5 20 -11 0 -5 4
-8 9 -5 5 3 14 -1 21 -9 7 -8 16 -12 21 -9 5 3 9 0 9 -5 0 -6 18 -18 40 -27
22 -9 40 -20 40 -25 0 -5 9 -9 20 -9 11 0 20 -4 20 -10 0 -5 6 -10 14 -10 7 0
19 -7 26 -15 7 -8 16 -12 21 -9 5 3 9 0 9 -5 0 -6 7 -11 15 -11 8 0 15 -4 15
-9 0 -5 14 -14 30 -21 17 -7 30 -17 30 -22 0 -5 4 -7 9 -3 6 3 14 -2 19 -11 5
-9 12 -15 15 -15 21 3 28 0 22 -9 -3 -5 -1 -10 4 -10 19 0 26 -3 51 -27 14
-13 28 -23 31 -23 3 0 19 -11 35 -25 16 -14 33 -25 37 -25 5 0 14 -6 21 -12 7
-7 28 -24 46 -38 18 -14 39 -30 45 -37 7 -7 15 -9 19 -6 3 4 6 -1 6 -10 0 -9
7 -17 15 -17 8 0 15 -4 15 -10 0 -5 5 -10 11 -10 16 0 39 -26 31 -35 -4 -5 -2
-6 4 -2 5 3 27 -10 48 -29 20 -19 42 -34 47 -34 6 0 9 -3 7 -7 -4 -8 49 -64
57 -60 7 3 85 -74 85 -84 0 -5 9 -9 20 -9 11 0 19 -3 19 -7 -3 -19 2 -34 9
-29 5 3 15 -6 22 -19 7 -14 22 -25 32 -25 10 0 17 -3 17 -7 -3 -20 2 -34 11
-28 6 3 10 -1 10 -9 0 -9 6 -16 13 -16 11 -1 20 -10 68 -73 11 -15 25 -25 30
-22 5 4 6 -1 3 -9 -3 -9 -2 -16 3 -16 5 0 18 -7 29 -16 10 -8 13 -13 7 -9 -7
3 -13 1 -13 -4 0 -6 4 -11 9 -11 14 0 71 -62 65 -72 -3 -4 2 -8 10 -8 9 0 16
-7 16 -15 0 -8 5 -15 10 -15 6 0 10 -7 10 -15 0 -8 8 -15 17 -15 9 0 14 -3 10
-6 -3 -3 3 -15 14 -27 10 -11 19 -27 19 -34 0 -7 6 -13 14 -13 8 0 18 -9 21
-20 4 -11 18 -32 31 -45 14 -14 21 -25 17 -25 -4 0 -3 -4 2 -8 15 -10 50 -66
47 -74 -1 -5 5 -8 13 -8 8 0 15 -7 15 -15 0 -8 5 -15 11 -15 5 0 7 -5 4 -10
-3 -6 1 -13 9 -16 9 -3 13 -10 10 -15 -3 -5 0 -9 6 -9 6 0 8 -4 5 -10 -3 -5
-1 -10 4 -10 6 0 11 -9 11 -20 0 -11 7 -20 15 -20 14 0 19 -12 16 -32 0 -5 4
-8 11 -8 6 0 9 -3 5 -6 -3 -4 -1 -12 6 -19 31 -33 45 -54 39 -60 -4 -4 0 -12
8 -18 13 -10 40 -60 42 -77 1 -3 8 -10 17 -17 9 -6 13 -15 9 -18 -4 -4 3 -16
15 -27 12 -11 16 -16 8 -13 -9 5 -8 -1 4 -19 10 -14 13 -26 9 -26 -5 0 -1 -5
9 -11 9 -6 15 -14 12 -20 -4 -5 -1 -9 5 -9 6 0 9 -4 6 -9 -4 -5 -2 -11 4 -13
6 -2 12 -14 15 -28 3 -14 9 -26 15 -28 6 -2 8 -8 4 -13 -3 -5 0 -9 6 -9 7 0
10 -7 6 -15 -3 -8 -1 -15 4 -15 6 0 10 -9 10 -20 0 -11 5 -20 10 -20 6 0 10
-7 10 -15 0 -8 4 -15 10 -15 5 0 7 -6 4 -14 -3 -8 0 -17 5 -21 6 -3 9 -11 6
-16 -4 -5 -1 -9 5 -9 6 0 8 -4 5 -10 -3 -5 -1 -10 5 -10 6 0 9 -4 5 -9 -3 -5
0 -13 6 -16 5 -4 8 -13 5 -21 -3 -8 -1 -14 5 -14 6 0 8 -4 5 -9 -4 -5 -1 -11
4 -13 6 -2 12 -13 13 -26 0 -12 5 -22 10 -22 5 0 7 -7 3 -15 -3 -8 -1 -15 5
-15 6 0 8 -4 5 -9 -4 -5 -1 -11 4 -13 6 -2 12 -13 13 -26 0 -12 5 -22 9 -22 4
0 5 -6 2 -14 -3 -8 0 -17 5 -21 6 -3 9 -11 6 -16 -4 -5 -2 -9 4 -9 6 0 8 -6 5
-14 -3 -7 3 -21 12 -31 15 -14 15 -18 3 -26 -11 -7 -10 -9 6 -9 17 0 17 -2 5
-10 -11 -7 -11 -10 -2 -10 7 0 10 -4 7 -10 -3 -5 -1 -10 6 -10 7 0 9 -3 6 -7
-4 -3 -1 -13 6 -21 9 -13 9 -14 0 -8 -7 4 -13 2 -13 -3 0 -6 5 -11 11 -11 5 0
7 -4 4 -10 -3 -5 -1 -10 5 -10 6 0 8 -5 5 -10 -4 -6 0 -24 9 -40 9 -19 10 -28
3 -23 -7 4 -6 0 2 -10 7 -9 10 -17 6 -17 -4 0 -1 -8 6 -17 12 -14 12 -15 0 -9
-8 6 -7 0 4 -18 9 -14 15 -33 11 -41 -3 -8 -1 -15 4 -15 6 0 10 -5 10 -11 0
-5 -6 -7 -12 -3 -10 6 -10 5 -1 -8 7 -8 10 -18 6 -21 -3 -4 0 -7 7 -7 7 0 11
-3 7 -6 -3 -3 1 -23 8 -44 10 -28 10 -41 2 -49 -8 -8 -8 -11 0 -11 6 0 14 -7
17 -16 4 -10 2 -13 -7 -8 -9 6 -9 5 0 -8 7 -8 10 -18 6 -21 -3 -4 0 -7 8 -7
11 0 11 -2 -1 -10 -8 -5 -10 -10 -4 -10 5 0 11 -10 11 -22 1 -13 4 -36 8 -53
3 -16 6 -42 7 -57 1 -16 6 -28 12 -28 6 0 4 -5 -4 -10 -8 -5 -10 -10 -5 -10 6
0 10 -18 10 -40 0 -22 4 -40 10 -40 5 0 3 -5 -5 -10 -8 -5 -10 -10 -4 -10 6 0
11 -23 13 -52 1 -28 7 -60 12 -70 5 -10 6 -18 1 -18 -4 0 -8 -9 -8 -20 0 -11
5 -20 10 -20 6 0 5 -5 -2 -12 -7 -7 -8 -17 -1 -30 13 -24 18 -127 8 -155 -6
-16 -5 -23 4 -24 9 0 9 -2 0 -6 -9 -3 -10 -10 -3 -24 8 -14 7 -19 -2 -19 -9 0
-9 -3 2 -10 12 -8 12 -10 1 -10 -10 0 -11 -3 -2 -13 6 -8 8 -17 4 -20 -3 -4
-1 -7 7 -7 10 0 10 -3 0 -15 -8 -10 -9 -15 -2 -15 7 0 6 -12 -4 -35 -15 -36
-19 -58 -6 -38 6 9 7 -190 1 -207 -1 -3 -1 -8 0 -12 0 -5 -4 -8 -9 -8 -7 0 -7
-6 -1 -19 6 -10 7 -22 3 -26 -10 -10 -9 -29 3 -37 7 -6 6 -11 -2 -16 -7 -4
-12 -23 -12 -42 0 -37 -6 -74 -16 -90 -3 -6 -2 -10 4 -10 7 0 6 -10 -1 -30 -5
-17 -8 -39 -5 -50 3 -11 1 -20 -3 -20 -5 0 -7 -9 -5 -20 2 -11 1 -20 -3 -20
-4 0 -8 -21 -9 -46 -1 -25 -8 -53 -15 -62 -11 -13 -11 -14 2 -7 13 8 13 7 1
-8 -11 -14 -11 -17 0 -17 11 -1 11 -3 -1 -13 -9 -7 -14 -20 -12 -30 2 -10 -2
-25 -9 -33 -10 -13 -10 -17 1 -24 12 -7 11 -10 -3 -16 -15 -5 -15 -9 -5 -22
11 -13 11 -14 -1 -7 -11 6 -13 4 -8 -8 4 -10 1 -17 -6 -18 -9 0 -9 -2 0 -6 9
-3 9 -10 -3 -28 -9 -13 -14 -32 -13 -42 1 -10 -1 -26 -5 -35 -4 -9 -8 -22 -10
-30 -1 -7 -6 -19 -10 -27 -7 -10 -6 -12 4 -6 8 5 7 -1 -3 -16 -9 -13 -17 -28
-17 -34 0 -5 5 -3 10 5 7 10 10 11 10 2 0 -7 -6 -15 -14 -18 -8 -3 -13 -14
-11 -25 2 -10 -1 -19 -6 -19 -6 0 -7 -4 -4 -10 3 -5 0 -10 -7 -10 -9 0 -9 -3
2 -10 11 -7 11 -10 2 -10 -7 0 -10 -4 -7 -10 3 -5 1 -10 -5 -10 -6 0 -8 -5 -5
-10 4 -6 -1 -22 -10 -37 -12 -18 -13 -23 -4 -18 8 3 5 -1 -5 -9 -14 -11 -15
-16 -6 -16 11 0 11 -3 2 -12 -7 -7 -12 -20 -12 -30 0 -10 -5 -18 -12 -18 -6 0
-9 -3 -5 -6 3 -4 0 -22 -8 -41 -8 -19 -13 -39 -10 -43 3 -5 0 -10 -7 -12 -6
-2 -13 -13 -14 -23 -2 -11 -7 -28 -13 -40 -15 -33 -24 -59 -23 -67 1 -5 -3 -8
-10 -8 -6 0 -8 -3 -5 -6 4 -4 -3 -20 -14 -35 -14 -21 -16 -29 -7 -29 8 0 6 -5
-5 -11 -9 -6 -15 -14 -12 -20 4 -5 1 -9 -5 -9 -7 0 -9 -7 -6 -16 4 -10 2 -13
-6 -8 -7 5 -9 0 -6 -14 4 -12 1 -25 -4 -29 -7 -4 -8 -1 -3 7 6 9 4 11 -4 6 -7
-5 -10 -14 -7 -22 3 -7 -1 -20 -9 -28 -8 -7 -11 -16 -8 -20 4 -3 1 -6 -5 -6
-7 0 -12 -9 -12 -20 0 -11 -7 -23 -15 -26 -8 -4 -13 -10 -10 -14 8 -13 -6 -40
-18 -33 -6 4 -8 0 -4 -10 3 -9 0 -23 -8 -31 -8 -7 -11 -16 -8 -20 4 -3 1 -6
-5 -6 -7 0 -12 -9 -12 -19 0 -10 -7 -22 -16 -25 -8 -3 -12 -10 -9 -16 3 -5 1
-10 -6 -10 -7 0 -10 -3 -7 -6 6 -5 -26 -60 -51 -90 -6 -7 -7 -15 -4 -18 4 -3
1 -6 -6 -6 -7 0 -9 -5 -6 -10 3 -6 -1 -13 -9 -16 -9 -3 -13 -10 -10 -15 3 -5
0 -9 -6 -9 -6 0 -8 -4 -5 -10 3 -5 2 -10 -3 -10 -10 0 -55 -67 -56 -82 -1 -4
-10 -18 -21 -30 -11 -13 -19 -27 -17 -31 1 -4 -5 -10 -13 -13 -8 -4 -15 -12
-15 -18 0 -7 -8 -21 -18 -32 -10 -10 -35 -45 -56 -76 -21 -32 -42 -55 -47 -52
-5 3 -9 -2 -9 -11 0 -8 -9 -23 -20 -32 -11 -10 -20 -21 -20 -25 0 -9 -32 -49
-76 -95 -17 -18 -29 -35 -26 -38 3 -3 -3 -5 -14 -6 -10 0 -14 -3 -8 -5 7 -3
-4 -21 -25 -43 -20 -20 -39 -36 -44 -33 -4 2 -6 0 -5 -5 4 -11 -38 -64 -45
-57 -3 3 -8 -4 -12 -15 -3 -12 -10 -19 -15 -16 -5 3 -11 -4 -15 -14 -3 -11
-15 -23 -26 -26 -10 -4 -18 -9 -15 -13 2 -4 -6 -16 -17 -27 -11 -11 -16 -13
-12 -5 5 8 -3 4 -17 -10 -13 -14 -24 -27 -23 -30 2 -9 -74 -78 -80 -72 -3 3
-5 -2 -5 -11 0 -9 -5 -19 -12 -23 -7 -5 -8 -3 -3 7 7 11 5 11 -10 -1 -32 -25
-64 -60 -57 -60 4 0 -8 -8 -25 -16 -18 -9 -30 -20 -27 -25 3 -5 0 -9 -6 -9 -6
0 -8 -5 -4 -12 4 -7 3 -8 -4 -4 -13 8 -56 -17 -46 -26 3 -4 -4 -9 -15 -13 -12
-3 -21 -11 -21 -17 0 -6 -3 -9 -6 -5 -3 3 -18 -7 -34 -23 -15 -15 -37 -31 -49
-35 -12 -3 -19 -11 -16 -16 4 -5 -1 -9 -9 -9 -8 0 -21 -9 -29 -20 -8 -11 -16
-17 -20 -14 -3 3 -19 -8 -36 -25 -17 -18 -31 -29 -31 -25 0 4 -9 -1 -20 -11
-11 -10 -20 -14 -20 -9 -1 5 -7 -2 -15 -16 -8 -14 -14 -21 -15 -16 0 5 -9 1
-20 -9 -11 -10 -20 -15 -20 -11 0 4 -10 -2 -22 -14 -12 -11 -28 -20 -35 -20
-7 0 -13 -4 -13 -10 0 -5 -7 -10 -15 -10 -8 0 -15 -4 -15 -10 0 -5 -6 -10 -13
-10 -7 0 -19 -6 -26 -12 -6 -7 -15 -13 -19 -14 -20 -2 -41 -17 -36 -25 3 -5
-2 -6 -10 -3 -9 3 -16 1 -16 -4 0 -10 -26 -23 -44 -21 -5 0 -13 -6 -18 -15 -5
-9 -13 -14 -19 -11 -5 4 -9 1 -9 -5 0 -6 -4 -8 -10 -5 -5 3 -10 2 -10 -3 0 -9
-50 -37 -62 -34 -5 1 -8 -3 -8 -9 0 -5 -5 -7 -10 -4 -6 3 -13 -1 -16 -9 -3 -9
-10 -16 -16 -16 -5 0 -6 6 -3 13 4 6 0 4 -8 -5 -8 -10 -17 -15 -20 -11 -4 3
-7 1 -7 -5 0 -6 -13 -13 -30 -17 -16 -4 -30 -11 -30 -16 0 -5 -9 -9 -20 -9
-11 0 -20 -5 -20 -12 0 -6 -3 -9 -6 -5 -4 3 -23 -2 -44 -13 -21 -11 -40 -16
-44 -13 -3 4 -6 0 -6 -7 0 -7 -3 -11 -6 -7 -4 3 -13 -1 -21 -9 -8 -8 -19 -12
-24 -9 -5 4 -9 1 -9 -5 0 -7 -6 -10 -12 -7 -7 2 -19 -3 -26 -12 -10 -12 -12
-13 -6 -1 7 12 5 13 -8 3 -8 -7 -18 -10 -21 -6 -4 3 -7 1 -7 -6 0 -8 -8 -11
-20 -8 -11 3 -18 1 -14 -4 5 -8 -9 -13 -28 -10 -5 0 -8 -3 -8 -8 0 -6 -9 -8
-20 -6 -11 2 -20 -1 -20 -6 0 -6 -4 -7 -10 -4 -5 3 -10 1 -10 -4 0 -6 -3 -10
-7 -10 -5 1 -11 0 -15 -1 -5 -1 -12 -4 -18 -5 -5 -1 -12 -4 -15 -5 -3 -1 -9
-4 -15 -5 -5 -1 -11 -3 -12 -5 -2 -1 -12 -3 -22 -5 -10 -2 -23 -10 -27 -17 -7
-10 -9 -10 -9 2 0 10 -3 11 -8 4 -7 -11 -74 -29 -99 -27 -7 0 -10 -3 -7 -8 3
-5 2 -9 -3 -10 -54 -4 -89 -12 -100 -20 -7 -6 -17 -8 -23 -4 -5 3 -10 2 -10
-4 0 -5 -9 -8 -20 -6 -11 2 -20 0 -20 -5 0 -5 -9 -7 -20 -5 -11 2 -20 -1 -20
-7 0 -6 -3 -8 -6 -5 -4 3 -16 2 -27 -4 -15 -9 -18 -8 -11 3 6 10 5 11 -8 1 -8
-7 -18 -10 -21 -6 -4 3 -7 2 -7 -4 0 -6 -9 -9 -22 -5 -15 4 -19 2 -13 -7 6
-10 3 -11 -14 -2 -17 10 -22 9 -28 -4 -5 -13 -7 -14 -14 -3 -5 7 -9 8 -9 2 0
-6 -16 -10 -35 -9 -19 1 -35 -1 -35 -6 0 -4 -11 -6 -25 -4 -14 1 -25 -2 -25
-7 0 -5 -6 -8 -12 -5 -7 2 -21 0 -30 -5 -12 -6 -18 -5 -18 3 0 8 -4 8 -12 2
-7 -6 -26 -13 -43 -17 -22 -5 -26 -4 -15 4 8 5 10 10 5 10 -6 0 -21 -8 -34
-17 -18 -12 -22 -13 -16 -2 8 12 6 12 -8 0 -13 -10 -17 -10 -17 -1 0 9 -4 9
-17 -1 -15 -12 -16 -12 -8 1 7 12 6 13 -6 3 -8 -7 -41 -14 -72 -15 -31 -2 -57
-5 -57 -8 0 -3 -9 -6 -20 -6 -11 0 -20 4 -20 8 0 5 -9 4 -20 -2 -15 -8 -20 -8
-20 1 0 8 -4 9 -13 0 -8 -6 -17 -8 -20 -4 -4 3 -7 1 -7 -5 0 -7 -5 -12 -11
-12 -5 0 -7 5 -3 12 4 7 3 8 -4 4 -7 -4 -67 -8 -134 -8 -68 -1 -129 -5 -135
-11 -9 -6 -13 -6 -13 2 0 7 -4 9 -10 6 -5 -3 -10 0 -11 7 0 10 -2 10 -6 1 -3
-9 -10 -10 -24 -3 -14 8 -19 7 -19 -2 0 -9 -3 -9 -10 2 -8 13 -10 13 -10 1 0
-11 -3 -12 -11 -4 -7 7 -22 8 -38 4 -14 -4 -51 -6 -81 -3 -30 2 -65 5 -77 5
-13 1 -23 6 -23 11 0 5 -7 3 -16 -5 -13 -10 -17 -10 -24 0 -4 8 -13 10 -19 6
-7 -4 -19 -1 -28 7 -14 11 -16 11 -8 -2 8 -13 7 -13 -8 -1 -12 9 -17 10 -17 2
0 -8 -6 -9 -17 -3 -10 5 -24 7 -30 5 -7 -3 -13 0 -13 6 0 6 -5 11 -11 11 -5 0
-8 -4 -5 -8 2 -4 -4 -8 -14 -8 -10 0 -16 4 -14 8 3 4 -13 6 -35 4 -23 -2 -43
0 -46 5 -3 4 -12 6 -20 2 -9 -3 -15 1 -15 8 0 11 -3 11 -10 -1 -5 -8 -10 -10
-10 -4 0 6 -14 11 -31 12 -17 0 -36 5 -43 11 -7 6 -17 6 -26 1 -8 -5 -19 -5
-26 0 -6 6 -27 11 -47 12 -20 2 -37 6 -37 10 0 4 -7 5 -15 2 -9 -4 -15 0 -15
7 0 11 -3 11 -10 -1 -7 -11 -10 -11 -10 -2 0 7 -4 10 -10 7 -5 -3 -10 0 -10 7
0 10 -2 10 -9 0 -7 -12 -11 -12 -22 1 -7 7 -21 12 -31 9 -10 -2 -26 2 -35 9
-14 12 -16 12 -8 -1 5 -9 0 -8 -13 4 -15 13 -22 15 -22 6 0 -9 -3 -10 -13 -1
-8 6 -17 8 -20 4 -4 -3 -7 -1 -7 5 0 7 -13 12 -29 12 -17 0 -32 4 -36 10 -3 5
-12 7 -20 3 -8 -3 -15 -1 -15 5 0 6 -10 8 -22 4 -13 -3 -19 -1 -15 6 4 6 0 9
-10 7 -10 -1 -29 4 -42 12 -18 12 -22 12 -15 2 7 -12 5 -12 -9 -1 -9 8 -22 10
-28 6 -8 -5 -9 -3 -4 6 6 10 4 12 -8 7 -10 -4 -17 -2 -17 4 0 6 -9 9 -20 6
-11 -3 -18 -1 -14 4 3 5 -3 9 -13 9 -10 0 -31 7 -46 15 -19 10 -26 10 -22 2 4
-7 1 -5 -7 4 -7 9 -19 14 -25 12 -7 -3 -13 1 -13 7 0 7 -7 10 -15 6 -8 -3 -15
-1 -15 4 0 6 -3 9 -7 8 -5 -1 -21 4 -36 10 -16 7 -35 12 -43 12 -8 0 -14 5
-14 11 0 5 -4 7 -10 4 -5 -3 -10 -1 -10 4 0 6 -11 11 -25 11 -14 0 -25 5 -25
11 0 6 -6 9 -14 6 -8 -3 -17 1 -20 9 -3 9 -10 12 -16 9 -5 -3 -10 -1 -10 4 0
6 -3 10 -7 9 -15 -3 -63 14 -63 23 0 5 -9 9 -20 9 -11 0 -20 5 -20 11 0 5 -4
7 -10 4 -5 -3 -10 -1 -10 5 0 6 -4 9 -9 6 -5 -4 -11 -2 -13 4 -2 6 -14 12 -27
15 -14 2 -27 8 -30 12 -3 5 -13 9 -21 11 -8 2 -17 8 -18 13 -2 5 -8 7 -13 3
-5 -3 -9 0 -9 5 0 6 -7 11 -15 11 -8 0 -15 4 -15 8 0 8 -60 36 -72 33 -5 0 -8
3 -8 9 0 5 -7 10 -15 10 -8 0 -15 5 -15 10 0 6 -3 9 -7 8 -11 -2 -68 32 -101
59 -15 13 -33 23 -39 23 -7 0 -13 5 -13 10 0 6 -7 10 -15 10 -8 0 -26 10 -41
23 -14 12 -28 21 -31 19 -2 -2 -12 5 -21 16 -20 22 -63 47 -75 44 -5 -1 -6 1
-3 6 3 5 -6 15 -19 22 -14 7 -25 17 -25 22 0 4 -6 8 -14 8 -8 0 -21 9 -29 20
-8 11 -17 17 -20 13 -4 -3 -7 0 -7 7 0 7 -3 11 -6 7 -3 -3 -22 10 -42 29 -20
19 -40 34 -44 34 -7 0 -29 18 -99 83 -16 15 -34 25 -40 22 -5 -4 -8 -3 -7 2 3
9 -37 64 -46 64 -16 -1 -36 13 -36 24 0 8 -9 17 -20 20 -11 3 -20 11 -20 16 0
6 -5 7 -10 4 -6 -4 -10 -3 -9 2 3 20 -2 34 -11 28 -6 -3 -10 1 -10 9 0 15 -12
21 -33 17 -5 -1 -6 3 -3 8 4 5 -5 18 -19 29 -13 11 -21 22 -18 26 4 4 -3 9
-15 13 -12 3 -20 8 -18 12 3 4 -8 16 -24 26 -16 11 -35 30 -41 42 -7 13 -18
23 -26 23 -7 0 -13 7 -13 15 0 7 -8 19 -17 24 -10 6 -15 11 -12 11 3 0 -19 27
-50 59 -31 32 -57 64 -59 71 -2 7 -13 21 -25 31 -12 10 -18 18 -13 19 5 0 -5
14 -23 30 -17 17 -31 34 -31 40 0 5 -9 14 -20 20 -11 6 -18 15 -15 21 4 5 1 9
-6 9 -7 0 -10 3 -6 6 3 3 -6 17 -21 31 -15 13 -20 22 -12 18 8 -4 6 1 -5 10
-11 9 -19 21 -17 26 1 5 -3 9 -9 9 -5 0 -8 3 -6 7 7 11 -19 33 -27 25 -4 -3
-4 2 0 12 5 12 4 17 -3 13 -6 -4 -18 11 -28 33 -10 22 -22 40 -27 40 -4 0 -8
7 -8 16 0 9 -5 12 -12 8 -8 -5 -9 -2 -5 9 3 10 2 17 -3 17 -6 0 -10 5 -10 11
0 7 -17 33 -37 58 -21 25 -29 39 -18 31 11 -8 2 7 -20 34 -22 28 -34 47 -28
42 9 -5 11 -2 7 8 -3 9 -10 16 -15 16 -5 0 -9 7 -9 15 0 8 -5 15 -11 15 -5 0
-8 4 -5 9 4 5 2 11 -4 13 -6 2 -12 14 -15 28 -3 14 -9 26 -15 28 -5 2 -10 12
-10 23 0 10 -4 19 -10 19 -5 0 -10 9 -10 20 0 11 -5 20 -11 20 -5 0 -7 5 -4
10 3 6 1 10 -5 10 -6 0 -8 5 -5 10 3 6 1 10 -4 10 -6 0 -11 9 -11 20 0 11 -4
20 -10 20 -5 0 -10 9 -10 20 0 11 -5 20 -11 20 -5 0 -7 5 -4 10 3 6 1 10 -5
10 -6 0 -9 4 -5 9 3 5 -2 16 -11 25 -8 9 -12 20 -9 26 3 5 1 10 -4 10 -6 0
-11 11 -11 24 0 13 -5 26 -10 28 -6 2 -12 13 -14 25 -3 12 -9 30 -15 41 -6 11
-7 22 -4 26 3 3 2 6 -4 6 -6 0 -17 20 -24 45 -7 25 -16 45 -20 45 -3 0 -6 6
-7 13 -3 41 -7 57 -14 57 -4 0 -8 11 -8 25 0 14 -5 25 -11 25 -5 0 -8 4 -4 9
3 5 1 12 -5 16 -5 3 -10 11 -10 16 0 6 4 8 9 5 5 -4 4 5 -2 18 -7 13 -15 22
-18 20 -4 -2 -5 5 -2 16 3 11 0 20 -6 20 -6 0 -10 3 -10 8 4 22 -2 63 -8 59
-5 -3 -9 9 -10 26 -2 18 -7 33 -13 35 -7 3 -7 8 1 18 9 11 9 14 0 14 -7 0 -9
5 -6 10 3 6 2 10 -4 10 -6 0 -7 7 -4 17 4 9 2 14 -3 11 -8 -6 -12 13 -14 67
-1 10 -6 26 -13 34 -10 12 -9 13 3 6 12 -6 13 -5 3 6 -7 7 -13 26 -13 41 0 15
-4 28 -9 28 -5 0 -8 8 -7 18 2 9 -2 20 -8 24 -8 6 -8 8 1 8 6 0 9 9 6 20 -3
11 -10 20 -15 20 -6 0 -5 7 2 15 10 12 10 15 0 15 -7 0 -10 6 -7 13 3 8 1 20
-3 28 -6 8 -4 16 3 21 9 6 9 8 0 8 -7 0 -10 7 -7 15 4 8 2 15 -3 15 -6 0 -9
14 -8 30 1 17 -3 30 -9 30 -7 0 -6 3 1 8 10 7 10 12 -1 28 -10 13 -11 23 -4
31 7 9 7 13 -2 13 -9 0 -10 3 -1 13 6 8 7 17 3 21 -4 4 -8 12 -8 17 -1 5 -3
12 -4 17 -1 4 -1 22 0 40 1 17 -3 32 -8 32 -11 0 -10 25 1 36 3 4 2 15 -4 25
-6 11 -6 19 0 19 14 0 8 34 -9 47 -10 9 -11 12 -2 13 6 0 12 5 12 11 0 5 -3 8
-8 5 -4 -2 -7 35 -7 84 0 48 3 86 7 83 5 -2 4 7 -2 21 -5 14 -7 26 -4 26 4 0
1 7 -6 15 -7 8 -8 15 -3 15 5 0 10 7 10 15 0 8 -4 15 -9 15 -5 0 -4 9 2 20 8
15 8 20 -2 20 -9 0 -9 3 2 10 8 5 11 12 7 16 -4 4 -2 14 5 21 9 11 9 17 -3 24
-12 7 -12 9 1 9 12 0 12 2 1 9 -8 5 -9 11 -3 15 11 7 10 55 -1 74 -5 7 -4 12
3 12 8 0 8 6 0 20 -6 11 -7 20 -2 20 5 0 8 11 7 25 -2 14 1 28 6 31 6 3 5 12
-2 21 -8 9 -9 17 -3 21 12 9 12 35 -1 45 -7 4 -6 10 1 15 17 11 22 35 13 60
-5 14 -5 22 2 22 6 0 7 5 4 10 -3 6 -1 10 5 10 7 0 8 6 1 19 -6 10 -7 21 -4
25 4 4 9 28 10 54 2 26 8 51 14 57 5 5 9 14 9 20 0 5 -5 3 -11 -5 -8 -11 -9
-9 -3 10 4 14 11 26 15 28 5 2 4 12 -1 23 -8 14 -7 19 1 19 7 0 9 3 6 6 -3 4
-2 15 4 25 7 14 6 19 -3 19 -9 0 -9 3 0 12 7 7 12 25 12 40 0 15 5 28 10 28 6
0 10 5 10 11 0 5 -5 7 -12 3 -7 -5 -8 -3 -2 7 4 8 10 23 11 33 2 11 8 25 14
32 7 8 6 14 -3 18 -10 5 -10 7 0 12 6 3 12 16 12 29 0 13 5 27 10 30 6 4 8 15
5 26 -4 10 -2 19 2 19 5 0 10 11 11 25 1 14 4 36 5 49 1 13 5 22 9 20 6 -4 24
73 20 89 -1 4 3 7 8 7 6 0 10 8 10 18 0 10 6 24 13 31 10 11 9 12 -3 6 -9 -5
-7 1 5 15 11 13 14 20 8 16 -9 -5 -11 -2 -7 8 3 9 9 14 14 11 4 -2 6 7 4 20
-1 14 2 25 8 25 6 0 8 7 4 15 -3 8 -1 15 5 15 6 0 9 7 5 15 -3 8 -1 15 5 15 6
0 7 5 4 10 -3 6 -1 10 5 10 6 0 9 4 5 9 -3 5 -1 12 4 16 5 3 8 14 6 25 -2 11
1 19 7 17 6 -1 13 4 16 12 3 9 0 11 -7 6 -17 -10 9 35 29 52 13 11 13 14 1 22
-11 7 -11 10 3 18 8 4 17 17 19 28 6 29 33 86 38 81 3 -3 6 4 7 14 4 43 6 49
16 47 5 -1 11 5 12 13 2 28 16 60 25 60 5 0 9 7 9 15 0 8 4 15 10 15 5 0 7 7
4 15 -4 8 -1 15 6 15 6 0 8 5 5 10 -3 6 -1 10 5 10 6 0 8 5 5 10 -3 6 -1 10 5
10 6 0 8 5 5 10 -3 6 -1 10 5 10 7 0 10 6 7 14 -3 8 1 17 10 20 8 4 13 12 10
20 -3 7 3 19 13 26 11 8 17 17 14 21 -2 4 2 14 10 22 8 8 12 17 9 21 -4 3 -1
6 5 6 7 0 12 7 12 16 0 8 4 12 10 9 6 -3 7 1 4 9 -3 9 -1 16 6 16 6 0 8 5 5
10 -3 6 -1 10 4 10 6 0 11 7 11 15 0 8 4 15 10 15 5 0 12 11 16 24 3 14 12 27
19 30 8 3 12 14 10 25 -2 14 1 18 11 14 8 -3 14 1 14 11 0 9 4 16 10 16 5 0 9
3 8 8 -3 11 38 73 44 66 3 -3 5 3 4 13 0 10 5 17 12 16 6 -2 12 2 12 8 0 6 9
22 20 36 11 14 17 29 15 33 -3 5 4 11 15 15 11 4 18 11 15 16 -4 5 -1 9 6 9 7
0 10 3 6 6 -3 3 6 19 21 35 63 69 72 81 67 89 -3 5 3 11 14 15 10 3 22 17 25
32 4 14 10 23 13 20 5 -6 53 45 53 57 0 9 39 46 48 46 4 0 7 3 7 8 0 4 10 20
23 36 12 16 22 25 22 21 0 -4 10 5 22 21 13 16 25 30 29 32 3 1 15 10 25 18
10 9 12 12 4 8 -9 -4 -7 2 5 13 11 11 21 19 23 18 5 -4 72 67 72 76 0 5 8 9
17 9 9 0 14 3 10 6 -8 8 18 34 33 34 6 0 9 4 6 8 -2 4 11 18 30 31 18 13 31
27 28 32 -3 5 2 6 10 3 9 -3 17 2 20 14 6 18 29 35 41 29 2 -1 16 13 30 32 14
19 25 31 25 26 0 -4 11 4 25 19 14 15 25 24 25 20 0 -4 9 3 20 16 11 13 20 19
20 15 0 -4 11 4 25 19 13 14 27 26 32 26 4 0 21 13 38 29 16 16 37 31 45 33 8
2 23 13 33 26 10 12 25 22 33 22 8 0 14 5 14 10 0 6 7 10 16 10 8 0 12 5 9 10
-3 6 3 10 14 10 12 0 21 5 21 11 0 5 4 8 9 5 5 -3 16 6 25 19 9 14 21 23 26
20 4 -3 15 2 23 10 9 8 20 15 25 15 5 0 15 7 22 15 7 8 16 12 21 9 5 -3 9 0 9
5 0 6 18 19 40 28 22 10 40 21 40 26 0 4 4 6 9 3 5 -3 12 1 15 10 3 8 10 13
15 9 6 -3 14 3 20 12 6 10 11 14 11 10 0 -4 10 -2 23 5 12 7 27 13 32 13 6 1
9 5 8 11 -1 5 8 11 19 11 12 1 24 6 27 10 8 11 84 47 94 45 4 -1 7 3 7 9 0 5
5 7 10 4 6 -3 10 -2 10 3 0 10 38 25 55 22 5 -1 15 7 22 16 7 10 13 14 13 10
0 -5 7 -3 15 4 8 6 18 9 23 6 4 -3 14 3 22 14 7 10 20 16 28 12 10 -3 13 -1 8
6 -4 8 -2 10 7 6 8 -3 18 -1 22 5 3 6 15 11 26 11 10 0 19 5 19 11 0 5 4 8 8
5 5 -3 21 2 37 10 16 8 35 12 42 9 8 -2 11 0 8 5 -3 6 -1 10 4 10 19 0 26 2
46 13 11 6 23 12 28 13 4 1 8 2 10 4 1 1 10 3 19 5 9 2 31 10 48 18 19 10 28
11 23 4 -5 -8 -2 -8 9 0 8 7 18 10 21 6 4 -3 7 -2 7 4 0 6 15 14 33 18 17 4
34 8 37 9 3 1 11 5 19 10 10 7 12 5 6 -5 -6 -11 -5 -12 6 -1 7 6 21 12 32 12
10 0 15 4 12 10 -3 5 0 7 8 4 8 -3 31 2 51 10 25 10 34 11 29 3 -5 -9 -3 -9 8
-1 22 16 71 35 65 25 -3 -5 3 -7 14 -4 11 3 18 9 15 13 -3 5 4 6 15 3 12 -3
20 0 20 7 0 10 3 10 14 1 10 -8 16 -9 21 -1 3 6 11 8 16 5 5 -4 9 -1 9 5 0 6
4 8 10 5 5 -3 19 -1 30 5 15 8 20 8 20 -1 0 -8 6 -7 18 3 9 9 23 13 30 11 7
-3 20 1 29 9 14 11 16 11 8 -2 -8 -13 -7 -13 8 -1 9 7 17 10 17 6 0 -4 6 -3
13 1 6 5 31 9 55 9 23 0 42 3 42 7 0 5 3 7 8 7 4 -1 12 0 17 1 6 1 26 1 46 0
21 -1 40 4 44 10 6 9 10 9 16 -1 7 -11 9 -11 9 1 0 13 1 13 10 0 5 -8 10 -10
10 -4 0 5 21 11 47 13 26 1 54 8 62 14 12 10 13 9 6 -3 -8 -13 -7 -13 8 -1 11
9 17 10 17 2 0 -6 5 -11 11 -11 5 0 8 4 5 8 -3 5 1 9 9 9 8 0 15 -3 15 -6 0
-3 11 -6 24 -6 13 0 22 3 19 8 -5 8 9 9 149 8 63 0 100 4 105 11 5 9 8 9 11 0
3 -10 7 -10 18 -1z"/>
</g>
</svg>
